# This file uses centimeters as units for non-parametric coordinates.

mtllib coke.mtl
g default
v 1.029961 -3.156932 0.215587
v 0.888500 -3.156932 -0.062046
v 0.668170 -3.156932 -0.282377
v 0.390537 -3.156932 -0.423837
v 0.082779 -3.156932 -0.472582
v -0.224979 -3.156932 -0.423837
v -0.502612 -3.156932 -0.282376
v -0.722942 -3.156932 -0.062046
v -0.864403 -3.156932 0.215587
v -0.913147 -3.156932 0.523345
v -0.864403 -3.156932 0.831103
v -0.722942 -3.156932 1.108735
v -0.502612 -3.156932 1.329066
v -0.224979 -3.156932 1.470526
v 0.082779 -3.156932 1.519270
v 0.390537 -3.156932 1.470526
v 0.668169 -3.156932 1.329066
v 0.888500 -3.156932 1.108735
v 1.029960 -3.156932 0.831103
v 1.078705 -3.156932 0.523345
v 1.283675 1.781034 0.133150
v 1.104322 1.781034 -0.218851
v 0.824974 1.781034 -0.498199
v 0.472974 1.781034 -0.677552
v 0.082779 1.781034 -0.739352
v -0.307416 1.781034 -0.677552
v -0.659416 1.781034 -0.498199
v -0.938765 1.781034 -0.218850
v -1.118118 1.781034 0.133150
v -1.179918 1.781034 0.523345
v -1.118118 1.781034 0.913540
v -0.938765 1.781034 1.265540
v -0.659416 1.781034 1.544888
v -0.307416 1.781034 1.724241
v 0.082779 1.781034 1.786041
v 0.472974 1.781034 1.724241
v 0.824974 1.781034 1.544888
v 1.104322 1.781034 1.265540
v 1.283675 1.781034 0.913540
v 1.345475 1.781034 0.523345
v 1.283676 -2.902607 0.133150
v 1.104323 -2.902607 -0.218850
v 0.824974 -2.902607 -0.498199
v 0.472974 -2.902607 -0.677552
v 0.082779 -2.902607 -0.739353
v -0.307416 -2.902607 -0.677552
v -0.659416 -2.902607 -0.498199
v -0.938765 -2.902607 -0.218850
v -1.118118 -2.902607 0.133150
v -1.179918 -2.902607 0.523345
v -1.118118 -2.902607 0.913540
v -0.938765 -2.902607 1.265539
v -0.659416 -2.902607 1.544888
v -0.307416 -2.902607 1.724241
v 0.082779 -2.902607 1.786042
v 0.472974 -2.902607 1.724241
v 0.824973 -2.902607 1.544888
v 1.104322 -2.902607 1.265539
v 1.283675 -2.902607 0.913539
v 1.345476 -2.902607 0.523345
v 1.038051 2.218300 0.212958
v 0.895382 2.218300 -0.067047
v 0.673170 2.218300 -0.289259
v 0.393166 2.218300 -0.431927
v 0.082779 2.218300 -0.481087
v -0.227608 2.218300 -0.431927
v -0.507611 2.218300 -0.289258
v -0.729823 2.218300 -0.067046
v -0.872493 2.218300 0.212958
v -0.921652 2.218300 0.523344
v -0.872493 2.218300 0.833731
v -0.729823 2.218300 1.113735
v -0.507611 2.218300 1.335946
v -0.227608 2.218300 1.478616
v 0.082779 2.218300 1.527776
v 0.393166 2.218300 1.478616
v 0.673170 2.218300 1.335947
v 0.895382 2.218300 1.113735
v 1.038051 2.218300 0.833731
v 1.087210 2.218300 0.523345
v 0.935271 2.060976 0.234652
v 0.807951 2.060976 -0.015227
v 0.609648 2.060976 -0.213530
v 0.359770 2.060976 -0.340849
v 0.082779 2.060976 -0.384720
v -0.194213 2.060976 -0.340849
v -0.444090 2.060976 -0.213530
v -0.642394 2.060976 -0.015226
v -0.769713 2.060976 0.234652
v -0.813583 2.060976 0.511643
v -0.769713 2.060976 0.788634
v -0.642394 2.060976 1.038512
v -0.444090 2.060976 1.236815
v -0.194213 2.060976 1.364134
v 0.082779 2.060976 1.408005
v 0.359770 2.060976 1.364134
v 0.609648 2.060976 1.236815
v 0.807951 2.060976 1.038512
v 0.935270 2.060976 0.788634
v 0.979141 2.060976 0.511643
v 0.935270 1.956361 0.246353
v 0.807951 1.956361 -0.003525
v 0.609648 1.956361 -0.201829
v 0.359770 1.956361 -0.329147
v 0.082779 1.956361 -0.373018
v -0.194213 1.956361 -0.329147
v -0.444090 1.956361 -0.201828
v -0.642394 1.956361 -0.003525
v -0.769713 1.956361 0.246353
v -0.813583 1.956361 0.523344
v -0.769713 1.956361 0.800335
v -0.642394 1.956361 1.050213
v -0.444090 1.956361 1.248517
v -0.194213 1.956361 1.375835
v 0.082779 1.956361 1.419707
v 0.359770 1.956361 1.375836
v 0.609648 1.956361 1.248517
v 0.807951 1.956361 1.050214
v 0.935270 1.956361 0.800336
v 0.979141 1.956361 0.523344
v -1.133761 -2.802608 0.231919
v -1.164275 -2.802608 0.424576
v -1.164274 1.681034 0.424576
v -1.133761 1.681034 0.231919
v 0.933670 -3.156932 0.246874
v 0.806590 -3.156932 -0.002535
v 0.608658 -3.156932 -0.200466
v 0.359250 -3.156932 -0.327546
v 0.082779 -3.156932 -0.371335
v -0.193692 -3.156932 -0.327546
v -0.443101 -3.156932 -0.200466
v -0.641032 -3.156932 -0.002535
v -0.768112 -3.156932 0.246874
v -0.811900 -3.156932 0.523345
v -0.768112 -3.156932 0.799816
v -0.641032 -3.156932 1.049224
v -0.443101 -3.156932 1.247155
v -0.193692 -3.156932 1.374235
v 0.082779 -3.156932 1.418024
v 0.359250 -3.156932 1.374235
v 0.608658 -3.156932 1.247155
v 0.806590 -3.156932 1.049224
v 0.933669 -3.156932 0.799816
v 0.977458 -3.156932 0.523344
v 0.644796 -3.013213 0.340734
v 0.560860 -3.013214 0.175999
v 0.082779 -2.843756 0.523345
v 0.430125 -3.013213 0.045264
v 0.265389 -3.013213 -0.038673
v 0.082779 -3.013213 -0.067596
v -0.099832 -3.013213 -0.038673
v -0.264567 -3.013213 0.045264
v -0.395302 -3.013213 0.175999
v -0.479238 -3.013213 0.340734
v -0.508161 -3.013213 0.523345
v -0.479238 -3.013213 0.705955
v -0.395302 -3.013213 0.870690
v -0.264567 -3.013214 1.001425
v -0.099832 -3.013213 1.085361
v 0.082779 -3.013213 1.114284
v 0.265389 -3.013213 1.085361
v 0.430124 -3.013213 1.001425
v 0.560859 -3.013213 0.870690
v 0.644796 -3.013213 0.705955
v 0.673719 -3.013213 0.523344
v 1.161783 2.238316 0.172755
v 1.000635 2.238316 -0.143517
v 0.749641 2.238316 -0.394512
v 0.433369 2.238316 -0.555660
v 0.082779 2.238316 -0.611187
v -0.267811 2.238316 -0.555660
v -0.584083 2.238316 -0.394511
v -0.835077 2.238316 -0.143517
v -0.996226 2.238316 0.172755
v -1.051753 2.238316 0.523344
v -0.996226 2.238316 0.873934
v -0.835077 2.238316 1.190206
v -0.584083 2.238316 1.441200
v -0.267811 2.238316 1.602349
v 0.082779 2.238316 1.657877
v 0.433369 2.238316 1.602349
v 0.749640 2.238316 1.441200
v 1.000635 2.238316 1.190206
v 1.161783 2.238316 0.873935
v 1.217310 2.238316 0.523345
v 1.167349 1.988121 0.170946
v 1.005369 1.988121 -0.146957
v 0.753080 1.988121 -0.399246
v 0.435177 1.988121 -0.561226
v 0.082779 1.988121 -0.617040
v -0.269620 1.988121 -0.561226
v -0.587523 1.988121 -0.399246
v -0.839812 1.988121 -0.146957
v -1.001791 1.988121 0.170947
v -1.057605 1.988121 0.523344
v -1.001791 1.988121 0.875743
v -0.839812 1.988121 1.193646
v -0.587523 1.988121 1.445934
v -0.269620 1.988121 1.607914
v 0.082779 1.988121 1.663728
v 0.435177 1.988121 1.607914
v 0.753080 1.988121 1.445935
v 1.005369 1.988121 1.193646
v 1.167349 1.988121 0.875743
v 1.223162 1.988121 0.523345
v 1.173810 2.139973 0.168847
v 1.229956 2.139973 0.523345
v 1.173810 2.139973 0.877842
v 1.010865 2.139973 1.197639
v 0.757073 2.139973 1.451431
v 0.437276 2.139973 1.614375
v 0.082779 2.139973 1.670522
v -0.271719 2.139973 1.614375
v -0.591516 2.139973 1.451430
v -0.845307 2.139973 1.197639
v -1.008252 2.139973 0.877842
v -1.064398 2.139973 0.523344
v -1.008252 2.139973 0.168847
v -0.845307 2.139973 -0.150950
v -0.591516 2.139973 -0.404742
v -0.271719 2.139973 -0.567687
v 0.082779 2.139973 -0.623833
v 0.437276 2.139973 -0.567687
v 0.757073 2.139973 -0.404742
v 1.010865 2.139973 -0.150950
v 0.636769 1.956361 0.281735
v 0.554031 1.956361 0.063776
v 0.425164 1.956361 -0.109198
v 0.262781 1.956361 -0.220253
v 0.082779 1.956361 -0.258520
v -0.097224 1.956361 -0.220253
v -0.259606 1.956361 -0.109197
v -0.388473 1.956361 0.063776
v -0.471211 1.956361 0.281735
v -0.499721 1.956361 0.523344
v -0.471211 1.956361 0.764954
v -0.388473 1.956361 0.982913
v -0.259606 1.956361 1.155886
v -0.097224 1.956361 1.266941
v 0.082779 1.956361 1.305209
v 0.262781 1.956361 1.266942
v 0.425163 1.956361 1.155886
v 0.554031 1.956361 0.982913
v 0.636769 1.956361 0.764954
v 0.665278 1.956361 0.523344
v 0.576381 1.956361 0.289290
v 0.496943 1.956361 0.081335
v 0.377303 1.956361 -0.078247
v -0.331385 1.956361 0.081336
v -0.410823 1.956361 0.289290
v -0.438615 1.956361 0.523344
v -0.410823 1.956361 0.757398
v -0.331385 1.956361 0.965353
v -0.211745 1.956361 1.124935
v -0.068583 1.956361 1.222231
v 0.082779 1.956361 1.254209
v 0.377302 1.956361 1.124935
v 0.496943 1.956361 0.965354
v 0.576380 1.956361 0.757399
v 0.604172 1.956361 0.523344
v 0.434544 1.956361 0.898760
v 0.436624 1.956361 0.691130
v 0.436038 1.956361 0.523344
v 0.454443 1.956361 0.347110
v 0.485651 1.956361 -0.028008
v -0.272465 1.956361 0.002744
v -0.266866 1.956361 0.150192
v -0.276698 1.956361 0.352889
v -0.294747 1.956361 0.523344
v -0.323726 1.956361 0.716099
v -0.351227 1.956361 0.913410
v -0.347557 1.956361 0.970328
v -0.342793 1.956361 1.044228
v -0.307396 1.956361 1.179881
v -0.137618 1.956361 1.312294
v 0.082779 1.956361 1.346800
v 0.285206 1.956361 1.292120
v 0.387091 1.956361 1.181925
v 0.402369 1.956361 1.141145
v 0.439548 1.956361 1.041909
v -0.269406 1.956362 0.284026
v 0.221802 1.956361 1.165262
v 0.161014 1.956361 0.884584
v -0.050954 1.956361 1.225956
v -0.067259 1.956361 1.216117
v 0.000738 1.956361 0.902154
v -0.159291 1.956361 1.160584
v -0.180071 1.956361 1.060237
v -0.078835 1.956361 0.853455
v -0.172705 1.956361 0.796005
v 0.082779 1.956361 0.910416
v 0.304530 1.956361 0.976290
v 0.245910 1.956361 0.856553
v -0.201991 1.956362 0.922250
v 0.284842 1.956362 0.843698
v 0.237341 1.956361 0.596634
v 0.247084 1.956361 0.523344
v 0.239275 1.956361 0.449138
v 0.230494 1.956361 0.365698
v 0.162710 1.956361 0.360078
v 0.118925 1.956361 0.356447
v 0.082779 1.956361 0.353450
v 0.045311 1.956361 0.350344
v -0.003916 1.956361 0.346262
v -0.089822 1.956361 0.339139
v -0.092115 1.956361 0.440414
v -0.093993 1.956361 0.523344
v -0.095911 1.956361 0.608075
v -0.005448 1.956361 0.617503
v 0.032901 1.956361 0.625223
v 0.059552 1.956361 0.630588
v 0.082779 1.956361 0.635264
v 0.108123 1.956361 0.640367
v 0.140676 1.956361 0.641604
v 0.195543 1.956361 0.643690
v 0.287904 1.956361 0.742261
v 0.204030 1.956361 0.771011
v 0.141090 1.956361 0.792585
v 0.082779 1.956361 0.788439
v 0.026236 1.956361 0.784419
v -0.035865 1.956361 0.765685
v -0.120400 1.956361 0.740184
v -0.178500 1.956361 0.647237
v -0.192882 1.956361 0.523344
v -0.189880 1.956361 0.394056
v -0.194245 1.956361 0.227696
v -0.195199 1.956361 -0.044449
v -0.058253 1.956361 -0.127846
v 0.082779 1.956361 -0.144008
v 0.224083 1.956361 -0.129103
v 0.447345 1.956361 0.134268
v 0.342119 1.956361 0.400371
v 0.351441 1.956361 0.523344
v 0.354065 1.956361 0.651982
v -0.191648 1.956362 0.626203
v 0.389924 1.956362 0.285474
v 0.294292 1.956361 0.091310
v 0.246251 1.956361 0.189438
v 0.214292 1.956361 -0.083893
v 0.140243 1.956361 0.258013
v 0.082779 1.956361 -0.101635
v 0.082779 1.956361 0.252370
v -0.033812 1.956361 -0.014992
v 0.016530 1.956361 0.217454
v 0.160517 1.956362 0.260004
v 0.059833 1.956362 0.250116
v -0.031536 1.956362 0.181198
v -0.071703 1.956362 0.042521
v 0.010124 1.956362 -0.081679
v 0.279291 1.956362 -0.003380
v -0.201991 1.910530 0.922250
v -0.172706 1.910528 0.796005
v -0.180071 1.910528 1.060237
v -0.078835 1.910528 0.853455
v -0.159291 1.910528 1.160584
v -0.067259 1.910528 1.216117
v 0.000738 1.910528 0.902154
v -0.050954 1.910528 1.225956
v 0.082779 1.910528 1.254209
v 0.082779 1.910528 0.910416
v 0.221802 1.910528 1.165262
v 0.161014 1.910528 0.884584
v 0.284843 1.910530 0.843698
v 0.304530 1.910528 0.976290
v 0.245910 1.910528 0.856553
v 0.239275 1.880971 0.449138
v 0.230494 1.880971 0.365698
v 0.082779 1.880971 0.523345
v 0.162710 1.880971 0.360078
v 0.118925 1.880971 0.356447
v 0.082779 1.880971 0.353450
v 0.045311 1.880971 0.350344
v -0.003916 1.880971 0.346262
v -0.089822 1.880971 0.339139
v -0.092115 1.880971 0.440414
v -0.093993 1.880971 0.523344
v -0.095911 1.880971 0.608075
v -0.005448 1.880971 0.617503
v 0.108123 1.880971 0.640367
v 0.140676 1.880971 0.641604
v 0.195543 1.880971 0.643691
v 0.237341 1.880971 0.596634
v 0.247084 1.880971 0.523344
v 0.082779 1.880971 0.635264
v 0.059552 1.880971 0.630588
v 0.032901 1.880971 0.625223
v -0.331385 2.001387 0.965353
v -0.211745 2.001387 1.124935
v -0.180071 2.001387 1.060237
v -0.201991 2.001388 0.922250
v -0.172705 2.001387 0.796005
v 0.082779 2.001387 1.254209
v 0.234141 2.001387 1.222232
v 0.221802 2.001387 1.165262
v 0.434544 2.001387 0.898760
v 0.436624 2.001387 0.691130
v 0.354065 2.001387 0.651982
v 0.287904 2.001387 0.742261
v 0.496943 2.001387 0.081335
v 0.485651 2.001387 -0.028008
v 0.425164 2.001387 -0.109198
v 0.377303 2.001387 -0.078247
v 0.262781 2.001387 -0.220253
v 0.234141 2.001387 -0.175543
v 0.082779 2.001387 -0.258520
v 0.082779 2.001387 -0.207520
v -0.097224 2.001387 -0.220253
v -0.068584 2.001387 -0.175543
v -0.259606 2.001387 -0.109197
v -0.211745 2.001387 -0.078246
v -0.272465 2.001387 0.002744
v -0.347557 2.001387 0.970328
v -0.342793 2.001387 1.044228
v -0.259606 2.001387 1.155886
v -0.097224 2.001387 1.266941
v -0.068583 2.001387 1.222231
v -0.159291 2.001387 1.160584
v 0.082779 2.001387 1.305209
v -0.050954 2.001387 1.225956
v 0.262781 2.001387 1.266942
v 0.387091 2.001387 1.181925
v 0.402369 2.001387 1.141145
v 0.377302 2.001387 1.124935
v 0.304530 2.001387 0.976290
v 0.436038 2.001387 0.523344
v 0.351441 2.001387 0.523344
v 0.454443 2.001387 0.347110
v 0.342120 2.001387 0.400371
v 0.447345 2.001387 0.134268
v 0.389924 2.001388 0.285474
v 0.224083 2.001387 -0.129103
v 0.082779 2.001387 -0.144008
v -0.058253 2.001387 -0.127846
v -0.195199 2.001387 -0.044449
v -0.266866 2.001387 0.150192
v -0.194245 2.001387 0.227696
v -0.269406 2.001388 0.284026
v -0.276697 2.001387 0.352889
v -0.189880 2.001387 0.394056
v -0.294748 2.001387 0.523344
v -0.192882 2.001387 0.523344
v -0.323726 2.001387 0.716099
v -0.178500 2.001387 0.647237
v -0.191648 2.001388 0.626203
v -0.351227 2.001387 0.913410
v -0.120400 2.001387 0.740184
v -0.078835 2.001387 0.853455
v -0.035865 2.001387 0.765685
v 0.000738 2.001387 0.902154
v 0.026236 2.001387 0.784419
v 0.082779 2.001387 0.910416
v 0.082779 2.001387 0.788439
v 0.161014 2.001387 0.884584
v 0.141090 2.001387 0.792585
v 0.245910 2.001387 0.856553
v 0.204030 2.001387 0.771011
v 0.439548 2.001387 1.041909
v 0.284842 2.001388 0.843698
v -0.071705 1.890131 0.042522
v -0.033813 1.890131 -0.014992
v -0.031537 1.890131 0.181198
v 0.016529 1.890131 0.217454
v 0.010124 1.890131 -0.081679
v 0.082779 1.890131 -0.101635
v 0.059833 1.890131 0.250116
v 0.082779 1.890131 0.252370
v 0.214292 1.890131 -0.083893
v 0.140243 1.890131 0.258013
v 0.279291 1.890131 -0.003380
v 0.294292 1.890131 0.091310
v 0.160517 1.890131 0.260004
v 0.246251 1.890131 0.189438
v -0.071708 1.756362 0.042523
v -0.071713 1.556362 0.042525
v -0.033814 1.756361 -0.014993
v -0.033816 1.556361 -0.014994
v -0.031541 1.756362 0.181199
v -0.031547 1.556362 0.181199
v 0.016529 1.756361 0.217456
v 0.016528 1.556361 0.217457
v 0.010123 1.756362 -0.081680
v 0.010122 1.556362 -0.081682
v 0.082777 1.756361 -0.101635
v 0.082775 1.556361 -0.101634
v 0.059829 1.756362 0.250117
v 0.059824 1.556362 0.250119
v 0.082773 1.756361 0.252369
v 0.082766 1.556361 0.252368
v 0.214293 1.756361 -0.083892
v 0.214294 1.556361 -0.083891
v 0.140250 1.756361 0.258014
v 0.140257 1.556361 0.258015
v 0.279292 1.756362 -0.003381
v 0.279294 1.556362 -0.003382
v 0.294293 1.756361 0.091309
v 0.294293 1.556361 0.091308
v 0.160523 1.756362 0.260006
v 0.160529 1.556362 0.260008
v 0.246251 1.756361 0.189440
v 0.246250 1.556361 0.189441
vt 0.794417 0.057970
vt 0.844417 0.057970
vt 0.844417 0.929308
vt 0.794417 0.929308
vt 0.894417 0.057970
vt 0.894417 0.929308
vt 0.944417 0.057970
vt 0.944417 0.929308
vt 0.994417 0.929308
vt 0.044417 0.057970
vt 0.044417 0.929308
vt 0.094417 0.057970
vt 0.094417 0.929308
vt 0.144417 0.057970
vt 0.144417 0.929308
vt 0.194417 0.057970
vt 0.194417 0.929308
vt 0.206996 0.076574
vt 0.231838 0.076574
vt 0.231838 0.910704
vt 0.206996 0.910704
vt 0.244417 0.057970
vt 0.294417 0.057970
vt 0.294417 0.929308
vt 0.244417 0.929308
vt 0.344417 0.057970
vt 0.344417 0.929308
vt 0.394417 0.057970
vt 0.394417 0.929308
vt 0.444417 0.057970
vt 0.444417 0.929308
vt 0.494417 0.057970
vt 0.494417 0.929308
vt 0.544417 0.057970
vt 0.544417 0.929308
vt 0.594417 0.057970
vt 0.594417 0.929308
vt 0.644417 0.057970
vt 0.644417 0.929308
vt 0.694417 0.057970
vt 0.694417 0.929308
vt 0.744417 0.057970
vt 0.744417 0.929308
vt 0.844417 0.037393
vt 0.794417 0.037393
vt 0.544429 0.037393
vt 0.894417 0.037393
vt 0.944417 0.037393
vt 0.044417 0.037393
vt 0.094417 0.037393
vt 0.144417 0.037393
vt 0.194417 0.037393
vt 0.244417 0.037393
vt 0.294417 0.037393
vt 0.344417 0.037393
vt 0.394417 0.037393
vt 0.444417 0.037393
vt 0.494417 0.037393
vt 0.544417 0.037393
vt 0.594417 0.037393
vt 0.644417 0.037393
vt 0.694417 0.037393
vt 0.744417 0.037393
vt 0.794417 0.961925
vt 0.844417 0.961925
vt 0.656619 0.961925
vt 0.894417 0.961925
vt 0.944417 0.961925
vt 0.044417 0.961925
vt 0.094417 0.961925
vt 0.144417 0.961925
vt 0.194417 0.961925
vt 0.244417 0.961925
vt 0.294417 0.961925
vt 0.344417 0.961925
vt 0.394417 0.961925
vt 0.444417 0.961925
vt 0.494417 0.961925
vt 0.544417 0.961925
vt 0.594417 0.961925
vt 0.644417 0.961925
vt 0.694417 0.961925
vt 0.744417 0.961925
vt 0.794417 0.010656
vt 0.844417 0.010656
vt 0.894417 0.010656
vt 0.944417 0.010656
vt 0.044417 0.010656
vt 0.094417 0.010656
vt 0.144417 0.010656
vt 0.194417 0.010656
vt 0.244417 0.010656
vt 0.294417 0.010656
vt 0.344417 0.010656
vt 0.394417 0.010656
vt 0.444417 0.010656
vt 0.494417 0.010656
vt 0.544417 0.010656
vt 0.594417 0.010656
vt 0.644417 0.010656
vt 0.694417 0.010656
vt 0.744417 0.010656
vt 0.794417 1.010551
vt 0.844417 1.010551
vt 0.844417 1.010656
vt 0.794417 1.010656
vt 0.894417 1.010551
vt 0.894417 1.010656
vt 0.944417 1.010551
vt 0.944417 1.010656
vt 0.044417 1.010551
vt 0.044417 1.010656
vt 0.094417 1.010551
vt 0.094417 1.010656
vt 0.144417 1.010551
vt 0.144417 1.010656
vt 0.194417 1.010551
vt 0.194417 1.010656
vt 0.244417 1.010551
vt 0.244417 1.010656
vt 0.294417 1.010551
vt 0.294417 1.010656
vt 0.344417 1.010551
vt 0.344417 1.010656
vt 0.394417 1.010551
vt 0.394417 1.010656
vt 0.444417 1.010551
vt 0.444417 1.010656
vt 0.494417 1.010551
vt 0.494417 1.010656
vt 0.544417 1.010551
vt 0.544417 1.010656
vt 0.594417 1.010551
vt 0.594417 1.010656
vt 0.644417 1.010551
vt 0.644417 1.010656
vt 0.694417 1.010551
vt 0.694417 1.010656
vt 0.744417 1.010551
vt 0.744417 1.010656
vt 0.846085 0.981388
vt 0.796385 0.981388
vt 0.895626 0.981388
vt 0.945051 0.981388
vt 0.994417 0.981388
vt 0.043783 0.981388
vt 0.093209 0.981388
vt 0.142749 0.981388
vt 0.192449 0.981388
vt 0.242340 0.981388
vt 0.292433 0.981388
vt 0.342723 0.981388
vt 0.393183 0.981388
vt 0.443767 0.981388
vt 0.494417 0.981388
vt 0.545067 0.981388
vt 0.595651 0.981388
vt 0.646111 0.981388
vt 0.696401 0.981388
vt 0.746495 0.981388
vt 0.794417 0.010656
vt 0.844417 0.010656
vt 0.894417 0.010656
vt 0.944417 0.010656
vt 0.044417 0.010656
vt 0.094417 0.010656
vt 0.144417 0.010656
vt 0.194417 0.010656
vt 0.244417 0.010656
vt 0.294417 0.010656
vt 0.344417 0.010656
vt 0.394417 0.010656
vt 0.444417 0.010656
vt 0.494417 0.010656
vt 0.544417 0.010656
vt 0.594417 0.010656
vt 0.644417 0.010656
vt 0.694417 0.010656
vt 0.744417 0.010656
vt 0.794417 0.967834
vt 0.844417 0.967834
vt 0.894417 0.967834
vt 0.944417 0.967834
vt 0.044417 0.967834
vt 0.094417 0.967834
vt 0.144417 0.967834
vt 0.194417 0.967834
vt 0.244417 0.967834
vt 0.294417 0.967834
vt 0.344417 0.967834
vt 0.394417 0.967834
vt 0.444417 0.967834
vt 0.494417 0.967834
vt 0.544417 0.967834
vt 0.594417 0.967834
vt 0.644417 0.967834
vt 0.694417 0.967834
vt 0.744417 0.967834
vt 0.994417 0.057970
vt 1.044417 0.057970
vt 0.994417 0.961925
vt 1.044417 0.961925
vt 1.656619 0.961925
vt 1.044417 0.010656
vt 1.044417 1.010551
vt 0.994417 1.010656
vt 1.044417 1.010656
vt 1.043783 0.981388
vt 0.994417 0.010656
vt 1.044417 0.010656
vt 0.994417 0.010656
vt 0.994417 0.037393
vt 1.044417 0.037393
vt 0.994417 0.967834
vt 1.044417 0.967834
vt 0.994417 1.010551
vt 1.044417 0.929308
vt 0.794417 0.999913
vt 0.744417 0.999913
vt 0.694417 0.999913
vt 0.644417 0.999913
vt 0.594417 0.999913
vt 0.544417 0.999913
vt 0.494417 0.999913
vt 0.444417 0.999913
vt 0.394417 0.999913
vt 0.344417 0.999913
vt 0.294417 0.999913
vt 0.244417 0.999913
vt 0.194417 0.999913
vt 0.144417 0.999913
vt 0.094417 0.999913
vt 1.044417 0.999913
vt 0.044417 0.999913
vt 0.994417 0.999913
vt 0.944417 0.999913
vt 0.894417 0.999913
vt 0.844417 0.999913
vt 0.794417 0.961925
vt 0.844417 0.961925
vt 0.894417 0.961925
vt 0.944417 0.961925
vt 0.994417 0.961925
vt 1.044417 0.961925
vt 0.044417 0.961925
vt 0.094417 0.961925
vt 0.144417 0.961925
vt 0.194417 0.961925
vt 0.244417 0.961925
vt 0.294417 0.961925
vt 0.344417 0.961925
vt 0.394417 0.961925
vt 0.444417 0.961925
vt 0.494417 0.961925
vt 0.544417 0.961925
vt 0.594417 0.961925
vt 0.644417 0.961925
vt 0.694417 0.961925
vt 0.744417 0.961925
vt 0.794417 0.961925
vt 0.844417 0.961925
vt 0.894417 0.961925
vt 0.944417 0.961925
vt 0.994417 0.961925
vt 1.044417 0.961925
vt 0.044417 0.961925
vt 0.094417 0.961925
vt 0.144417 0.961925
vt 0.194417 0.961925
vt 0.244417 0.961925
vt 0.294417 0.961925
vt 0.344417 0.961925
vt 0.394417 0.961925
vt 0.444417 0.961925
vt 0.494417 0.961925
vt 0.544417 0.961925
vt 0.594417 0.961925
vt 0.644417 0.961925
vt 0.694417 0.961925
vt 0.744417 0.961925
vt 0.646255 0.961925
vt 0.683715 0.961925
vt 0.716105 0.961925
vt 0.760376 0.961925
vt 0.870948 0.961925
vt 0.119793 0.961925
vt 0.224208 0.961925
vt 0.320010 0.961925
vt 0.358155 0.961925
vt 0.358328 0.961925
vt 0.331928 0.961925
vt 0.344417 0.961925
vt 0.362141 0.961925
vt 0.394417 0.961925
vt 0.444417 0.961925
vt 0.494417 0.961925
vt 0.544417 0.961925
vt 0.582694 0.961925
vt 0.594417 0.961925
vt 0.620431 0.961925
vt 0.290214 0.961925
vt 0.553563 0.961925
vt 0.598624 0.961925
vt 0.450241 0.961925
vt 0.446274 0.961925
vt 0.541602 0.961925
vt 0.412737 0.961925
vt 0.422616 0.961925
vt 0.512741 0.961925
vt 0.464032 0.961925
vt 0.570715 0.961925
vt 0.609786 0.961925
vt 0.622166 0.961925
vt 0.428668 0.961925
vt 0.631156 0.961925
vt 0.668455 0.961925
vt 0.684286 0.961925
vt 0.700307 0.961925
vt 0.723599 0.961925
vt 0.721155 0.961925
vt 0.725346 0.961925
vt 0.735142 0.961925
vt 1.502685 0.961925
vt 1.505076 0.961925
vt 0.505076 0.961925
vt 0.491131 0.961925
vt 0.443161 0.961925
vt 0.492851 0.961925
vt 0.516867 0.961925
vt 0.525497 0.961925
vt 0.590112 0.961925
vt 0.612215 0.961925
vt 0.624056 0.961925
vt 0.631780 0.961925
vt 0.637831 0.961925
vt 0.644391 0.961925
vt 0.653296 0.961925
vt 0.650575 0.961925
vt 0.631011 0.961925
vt 0.613394 0.961925
vt 0.597786 0.961925
vt 0.577349 0.961925
vt 0.550995 0.961925
vt 0.503460 0.961925
vt 0.464894 0.961925
vt 0.438688 0.961925
vt 0.401305 0.961925
vt 0.314020 0.961925
vt 0.126002 0.961925
vt 1.086198 0.961925
vt 0.086198 0.961925
vt 0.965063 0.961925
vt 1.051962 0.961925
vt 0.925293 0.961925
vt 0.821927 0.961925
vt 0.729019 0.961925
vt 0.701859 0.961925
vt 0.677393 0.961925
vt 0.451981 0.961925
vt 0.769466 0.961925
vt 0.827394 0.961925
vt 0.788606 0.961925
vt 0.906676 0.961925
vt 0.765881 0.961925
vt 0.945478 0.961925
vt 1.090354 0.961925
vt 0.781861 0.961925
vt 1.411101 0.961925
vt 1.185055 0.961925
vt 0.185055 0.961925
vt 1.388669 0.961925
vt 0.388669 0.961925
vt 0.763808 0.961925
vt 1.412247 0.961925
vt 0.348284 0.961925
vt 0.224634 0.961925
vt 1.118529 0.961925
vt 0.868535 0.961925
vt 0.464032 0.961925
vt 0.428668 0.961925
vt 0.422616 0.961925
vt 0.512741 0.961925
vt 0.412737 0.961925
vt 0.446274 0.961925
vt 0.541602 0.961925
vt 0.450241 0.961925
vt 0.494417 0.961925
vt 0.570715 0.961925
vt 0.553563 0.961925
vt 0.598624 0.961925
vt 0.609786 0.961925
vt 0.631156 0.961925
vt 0.622166 0.961925
vt 0.185055 0.961925
vt 0.224634 0.961925
vt 0.348284 0.961925
vt 0.388669 0.961925
vt 1.090354 0.961925
vt 1.118529 0.961925
vt 1.185055 0.961925
vt 1.388669 0.961925
vt 1.412247 0.961925
vt 1.411101 0.961925
vt 0.906676 0.961925
vt 0.945478 0.961925
vt 0.781861 0.961925
vt 0.765881 0.961925
vt 0.827394 0.961925
vt 0.868535 0.961925
vt 0.763808 0.961925
vt 0.788606 0.961925
vt 0.700307 0.961925
vt 0.723599 0.961925
vt 0.721155 0.961925
vt 0.725346 0.961925
vt 0.735142 0.961925
vt 1.502685 0.961925
vt 1.505076 0.961925
vt 0.505076 0.961925
vt 0.491131 0.961925
vt 0.443161 0.961925
vt 0.492851 0.961925
vt 0.516867 0.961925
vt 0.525497 0.961925
vt 0.590112 0.961925
vt 0.637831 0.961925
vt 0.644391 0.961925
vt 0.653296 0.961925
vt 0.668455 0.961925
vt 0.684286 0.961925
vt 0.631780 0.961925
vt 0.624056 0.961925
vt 0.612215 0.961925
vt 0.394417 0.961925
vt 0.422616 0.961925
vt 0.428668 0.961925
vt 0.464032 0.961925
vt 0.553563 0.961925
vt 0.494417 0.961925
vt 0.646255 0.961925
vt 0.683715 0.961925
vt 0.677393 0.961925
vt 0.650575 0.961925
vt 0.844417 0.961925
vt 0.870948 0.961925
vt 0.894417 0.961925
vt 0.944417 0.961925
vt 0.994417 0.961925
vt 1.044417 0.961925
vt 0.044417 0.961925
vt 0.094417 0.961925
vt 0.119793 0.961925
vt 0.344417 0.961925
vt 0.362141 0.961925
vt 0.394417 0.961925
vt 0.344417 0.961925
vt 0.444417 0.961925
vt 0.444417 0.961925
vt 0.412737 0.961925
vt 0.494417 0.961925
vt 0.450241 0.961925
vt 0.544417 0.961925
vt 0.582694 0.961925
vt 0.594417 0.961925
vt 0.594417 0.961925
vt 0.609786 0.961925
vt 0.716105 0.961925
vt 0.701859 0.961925
vt 0.760376 0.961925
vt 0.729019 0.961925
vt 0.821927 0.961925
vt 0.769466 0.961925
vt 0.894417 0.961925
vt 0.925293 0.961925
vt 0.965063 0.961925
vt 1.086198 0.961925
vt 1.051962 0.961925
vt 0.126002 0.961925
vt 0.086198 0.961925
vt 0.224208 0.961925
vt 0.314020 0.961925
vt 0.290214 0.961925
vt 0.320010 0.961925
vt 0.401305 0.961925
vt 0.358155 0.961925
vt 0.438688 0.961925
vt 0.358328 0.961925
vt 0.464894 0.961925
vt 0.451981 0.961925
vt 0.331928 0.961925
vt 0.503460 0.961925
vt 0.512741 0.961925
vt 0.550995 0.961925
vt 0.541602 0.961925
vt 0.577349 0.961925
vt 0.570715 0.961925
vt 0.597786 0.961925
vt 0.598624 0.961925
vt 0.613394 0.961925
vt 0.622166 0.961925
vt 0.631011 0.961925
vt 0.620431 0.961925
vt 0.631156 0.961925
vt 0.185055 0.961925
vt 0.185055 0.961925
vt 0.224634 0.961925
vt 0.224634 0.961925
vt 0.348284 0.961925
vt 0.348284 0.961925
vt 0.388669 0.961925
vt 0.388669 0.961925
vt 1.090354 0.961925
vt 1.090354 0.961925
vt 1.118529 0.961925
vt 1.118529 0.961925
vt 1.185055 0.961925
vt 1.185055 0.961925
vt 1.388669 0.961925
vt 1.388669 0.961925
vt 1.412247 0.961925
vt 1.412247 0.961925
vt 1.411101 0.961925
vt 1.411101 0.961925
vt 0.906676 0.961925
vt 0.906676 0.961925
vt 0.945478 0.961925
vt 0.945478 0.961925
vt 0.781861 0.961925
vt 0.781861 0.961925
vt 0.765881 0.961925
vt 0.765881 0.961925
vt 0.827394 0.961925
vt 0.827394 0.961925
vt 0.868535 0.961925
vt 0.868535 0.961925
vt 0.763808 0.961925
vt 0.763808 0.961925
vt 0.788606 0.961925
vt 0.788606 0.961925
vn 0.950121 -0.044359 -0.308712
vn 0.808221 -0.044360 -0.587207
vn 0.808819 0.022109 -0.587641
vn 0.950824 0.022109 -0.308940
vn 0.587207 -0.044360 -0.808221
vn 0.587642 0.022109 -0.808819
vn 0.308713 -0.044360 -0.950120
vn 0.308941 0.022109 -0.950824
vn -0.000000 -0.044360 -0.999016
vn -0.000000 0.022109 -0.999756
vn -0.308713 -0.044360 -0.950120
vn -0.308941 0.022109 -0.950824
vn -0.587207 -0.044360 -0.808220
vn -0.587642 0.022109 -0.808819
vn -0.808221 -0.044360 -0.587206
vn -0.808819 0.022109 -0.587641
vn -0.912050 -0.072650 -0.403593
vn -0.913513 0.036372 -0.405180
vn -0.987689 0.000000 -0.156433
vn -0.987688 0.000000 -0.156433
vn -0.987689 0.000000 -0.156433
vn -0.987689 -0.000000 -0.156433
vn -0.992128 -0.072650 0.102001
vn -0.950120 -0.044360 0.308712
vn -0.950824 0.022109 0.308941
vn -0.994010 0.036372 0.103058
vn -0.808221 -0.044360 0.587207
vn -0.808819 0.022109 0.587642
vn -0.587207 -0.044360 0.808221
vn -0.587642 0.022109 0.808819
vn -0.308713 -0.044360 0.950120
vn -0.308941 0.022109 0.950824
vn -0.000000 -0.044360 0.999016
vn -0.000000 0.022109 0.999756
vn 0.308713 -0.044360 0.950120
vn 0.308941 0.022109 0.950824
vn 0.587207 -0.044360 0.808221
vn 0.587642 0.022109 0.808819
vn 0.808221 -0.044360 0.587207
vn 0.808819 0.022109 0.587642
vn 0.950121 -0.044360 0.308712
vn 0.950824 0.022109 0.308941
vn 0.999016 -0.044360 0.000000
vn 0.999756 0.022109 0.000000
vn -0.300932 -0.928244 0.218640
vn -0.353767 -0.928244 0.114947
vn -0.000000 -1.000000 -0.000000
vn -0.218641 -0.928244 0.300932
vn -0.114946 -0.928244 0.353767
vn 0.000000 -0.928244 0.371973
vn 0.114946 -0.928243 0.353768
vn 0.218640 -0.928243 0.300933
vn 0.300933 -0.928243 0.218641
vn 0.353768 -0.928243 0.114946
vn 0.371973 -0.928243 0.000000
vn 0.353768 -0.928243 -0.114946
vn 0.300932 -0.928243 -0.218641
vn 0.218640 -0.928243 -0.300933
vn 0.114947 -0.928244 -0.353767
vn 0.000000 -0.928244 -0.371973
vn -0.114946 -0.928243 -0.353768
vn -0.218640 -0.928243 -0.300933
vn -0.300933 -0.928244 -0.218640
vn -0.353768 -0.928243 -0.114946
vn -0.371973 -0.928244 -0.000001
vn 0.000002 1.000000 -0.000002
vn 0.000001 1.000000 -0.000002
vn -0.000000 1.000000 -0.000000
vn 0.000000 1.000000 0.000003
vn 0.000000 1.000000 0.000000
vn 0.000000 1.000000 0.000000
vn 0.000000 1.000000 -0.000001
vn 0.000000 1.000000 -0.000000
vn -0.000001 1.000000 0.000003
vn -0.000002 1.000000 0.000001
vn -0.000002 1.000000 -0.000003
vn -0.000001 1.000000 0.000002
vn -0.000000 1.000000 0.000008
vn -0.000003 1.000000 -0.000000
vn -0.000003 1.000000 -0.000001
vn -0.000007 1.000000 -0.000002
vn -0.000007 1.000000 -0.000002
vn -0.000001 1.000000 0.000001
vn 0.000000 1.000000 -0.000023
vn 0.000000 1.000000 -0.000023
vn 0.000000 1.000000 -0.000023
vn 0.000000 1.000000 -0.000026
vn 0.000000 1.000000 0.000002
vn 0.000000 1.000000 0.000001
vn 0.000000 1.000000 -0.000000
vn -0.000000 1.000000 0.000000
vn -0.000000 1.000000 -0.000003
vn 0.000001 1.000000 -0.000001
vn 0.000002 1.000000 -0.000001
vn 0.000000 1.000000 -0.000002
vn 0.000000 1.000000 -0.000001
vn 0.000001 1.000000 -0.000001
vn 0.000002 1.000000 -0.000004
vn 0.000002 1.000000 0.000000
vn 0.656248 -0.723790 -0.213227
vn 0.558238 -0.723791 -0.405583
vn 0.405583 -0.723791 -0.558237
vn 0.213228 -0.723791 -0.656248
vn -0.000000 -0.723791 -0.690020
vn -0.213228 -0.723790 -0.656248
vn -0.405584 -0.723790 -0.558238
vn -0.558238 -0.723790 -0.405583
vn -0.656248 -0.723791 -0.213228
vn -0.690020 -0.723791 -0.000000
vn -0.656248 -0.723791 0.213228
vn -0.558238 -0.723790 0.405584
vn -0.405583 -0.723790 0.558238
vn -0.213228 -0.723791 0.656248
vn -0.000000 -0.723791 0.690020
vn 0.213228 -0.723790 0.656248
vn 0.405583 -0.723791 0.558238
vn 0.558238 -0.723790 0.405583
vn 0.656248 -0.723790 0.213228
vn 0.690020 -0.723790 0.000001
vn 0.536386 0.825782 -0.174282
vn 0.456277 0.825782 -0.331504
vn -0.123018 0.988371 0.089379
vn -0.144616 0.988371 0.046989
vn 0.331505 0.825781 -0.456278
vn -0.089378 0.988371 0.123019
vn 0.174282 0.825782 -0.536387
vn -0.046988 0.988371 0.144617
vn -0.000000 0.825783 -0.563988
vn -0.000000 0.988371 0.152060
vn -0.174282 0.825782 -0.536385
vn 0.046989 0.988371 0.144617
vn -0.331505 0.825783 -0.456276
vn 0.089378 0.988371 0.123017
vn -0.456276 0.825783 -0.331504
vn 0.123017 0.988372 0.089378
vn -0.536385 0.825783 -0.174282
vn 0.144616 0.988372 0.046989
vn -0.563987 0.825783 0.000000
vn 0.152058 0.988372 0.000000
vn -0.536385 0.825782 0.174282
vn 0.144616 0.988372 -0.046988
vn -0.456276 0.825783 0.331505
vn 0.123017 0.988372 -0.089377
vn -0.331504 0.825783 0.456276
vn 0.089377 0.988372 -0.123017
vn -0.174282 0.825782 0.536385
vn 0.046989 0.988372 -0.144616
vn -0.000000 0.825782 0.563989
vn -0.000000 0.988372 -0.152058
vn 0.174282 0.825781 0.536387
vn -0.046989 0.988372 -0.144616
vn 0.331505 0.825782 0.456277
vn -0.089378 0.988371 -0.123018
vn 0.456277 0.825782 0.331504
vn -0.123018 0.988371 -0.089378
vn 0.536387 0.825782 0.174281
vn -0.144617 0.988371 -0.046989
vn 0.563989 0.825782 0.000000
vn -0.152059 0.988371 -0.000000
vn -0.794426 0.553483 0.250087
vn -0.684190 0.541236 0.488823
vn -0.677172 0.540711 0.499068
vn -0.790493 0.552792 0.263707
vn -0.502009 0.531213 0.682495
vn -0.494646 0.530925 0.688073
vn -0.265597 0.524632 0.808838
vn -0.260924 0.524550 0.810411
vn -0.000000 0.522338 0.852738
vn 0.000000 0.522338 0.852738
vn 0.265598 0.524632 0.808838
vn 0.260926 0.524551 0.810410
vn 0.502011 0.531211 0.682495
vn 0.494648 0.530923 0.688072
vn 0.684191 0.541234 0.488825
vn 0.677174 0.540709 0.499069
vn 0.794426 0.553482 0.250089
vn 0.790493 0.552791 0.263709
vn 0.823970 0.566579 -0.007789
vn 0.824478 0.565855 0.006639
vn 0.773043 0.579192 -0.258731
vn 0.777579 0.578570 -0.246225
vn 0.649589 0.590170 -0.479306
vn 0.656311 0.589741 -0.470596
vn 0.467406 0.598622 -0.650526
vn 0.473827 0.598404 -0.646065
vn 0.244210 0.603931 -0.758702
vn 0.248079 0.603872 -0.757493
vn -0.000000 0.605739 -0.795664
vn 0.000000 0.605739 -0.795664
vn -0.244210 0.603931 -0.758702
vn -0.248078 0.603872 -0.757493
vn -0.467405 0.598624 -0.650525
vn -0.473826 0.598406 -0.646064
vn -0.649587 0.590173 -0.479304
vn -0.656310 0.589744 -0.470595
vn -0.773041 0.579195 -0.258729
vn -0.777577 0.578574 -0.246223
vn -0.823969 0.566581 -0.007790
vn -0.824477 0.565857 0.006638
vn -0.943882 0.036715 0.328235
vn -0.796790 0.067170 0.600511
vn -0.817259 0.064059 0.572699
vn -0.956613 0.032388 0.289554
vn -0.575017 0.090945 0.813071
vn -0.595326 0.089315 0.798505
vn -0.300913 0.106008 0.947741
vn -0.313385 0.105560 0.943741
vn 0.000000 0.111160 0.993803
vn 0.000000 0.111160 0.993803
vn 0.300914 0.106008 0.947741
vn 0.313386 0.105561 0.943740
vn 0.575019 0.090944 0.813070
vn 0.595327 0.089314 0.798504
vn 0.796791 0.067167 0.600511
vn 0.817258 0.064057 0.572700
vn 0.943882 0.036713 0.328236
vn 0.956613 0.032387 0.289556
vn 0.999767 0.002398 0.021434
vn 0.999767 -0.002397 -0.021434
vn 0.956613 -0.032387 -0.289555
vn 0.943882 -0.036713 -0.328235
vn 0.817258 -0.064058 -0.572700
vn 0.796790 -0.067169 -0.600512
vn 0.595325 -0.089315 -0.798505
vn 0.575017 -0.090944 -0.813071
vn 0.313386 -0.105559 -0.943741
vn 0.300915 -0.106007 -0.947741
vn 0.000000 -0.111160 -0.993802
vn 0.000000 -0.111160 -0.993803
vn -0.313386 -0.105562 -0.943740
vn -0.300914 -0.106009 -0.947741
vn -0.595325 -0.089316 -0.798505
vn -0.575017 -0.090945 -0.813071
vn -0.817258 -0.064059 -0.572700
vn -0.796789 -0.067170 -0.600513
vn -0.956613 -0.032388 -0.289555
vn -0.943882 -0.036715 -0.328236
vn -0.999767 0.002398 0.021432
vn -0.999767 -0.002397 -0.021434
vn 0.000000 -1.000000 0.000000
vn 0.000000 -1.000000 0.000000
vn -0.283212 -0.954633 0.092021
vn -0.240914 -0.954632 0.175035
vn 0.000000 -1.000000 0.000000
vn -0.175035 -0.954632 0.240914
vn 0.000000 -1.000000 0.000000
vn -0.092021 -0.954632 0.283213
vn 0.000000 -1.000000 -0.000000
vn 0.000000 -0.954632 0.297787
vn 0.000000 -1.000000 -0.000001
vn 0.092021 -0.954632 0.283213
vn 0.000000 -1.000000 -0.000000
vn 0.175035 -0.954632 0.240915
vn 0.000000 -1.000000 0.000001
vn 0.240915 -0.954632 0.175036
vn 0.000000 -1.000000 0.000001
vn 0.283212 -0.954632 0.092022
vn 0.000000 -1.000000 0.000000
vn 0.297787 -0.954632 0.000000
vn 0.000000 -1.000000 0.000000
vn 0.283212 -0.954632 -0.092021
vn 0.000000 -1.000000 0.000000
vn 0.240914 -0.954632 -0.175035
vn 0.000000 -1.000000 -0.000000
vn 0.175034 -0.954632 -0.240915
vn 0.000000 -1.000000 -0.000000
vn 0.092022 -0.954632 -0.283212
vn 0.000000 -1.000000 0.000000
vn 0.000000 -0.954632 -0.297787
vn 0.000000 -1.000000 0.000001
vn -0.092021 -0.954632 -0.283213
vn 0.000000 -1.000000 -0.000000
vn -0.175035 -0.954632 -0.240915
vn 0.000000 -1.000000 -0.000001
vn -0.240915 -0.954632 -0.175035
vn 0.000000 -1.000000 -0.000001
vn -0.283213 -0.954632 -0.092021
vn 0.000000 -1.000000 -0.000000
vn -0.297787 -0.954632 -0.000001
vn 0.900641 0.321264 -0.292635
vn 0.766131 0.321264 -0.556626
vn 0.808810 0.022623 -0.587635
vn 0.950814 0.022623 -0.308937
vn 0.556627 0.321264 -0.766131
vn 0.587634 0.022623 -0.808810
vn 0.292635 0.321264 -0.900641
vn 0.308937 0.022623 -0.950814
vn -0.000000 0.321264 -0.946990
vn 0.000000 0.022624 -0.999744
vn -0.292636 0.321264 -0.900641
vn -0.308938 0.022624 -0.950813
vn -0.556627 0.321265 -0.766130
vn -0.587636 0.022623 -0.808810
vn -0.766131 0.321265 -0.556626
vn -0.808810 0.022623 -0.587635
vn -0.900641 0.321264 -0.292635
vn -0.950813 0.022623 -0.308937
vn -0.946990 0.321264 -0.000000
vn -0.999744 0.022623 -0.000000
vn -0.900641 0.321265 0.292635
vn -0.950813 0.022623 0.308937
vn -0.766130 0.321265 0.556627
vn -0.808810 0.022623 0.587635
vn -0.556626 0.321265 0.766131
vn -0.587635 0.022623 0.808810
vn -0.292636 0.321264 0.900641
vn -0.308938 0.022623 0.950813
vn 0.000000 0.321264 0.946990
vn 0.000000 0.022623 0.999744
vn 0.292636 0.321264 0.900641
vn 0.308938 0.022623 0.950813
vn 0.556626 0.321264 0.766131
vn 0.587635 0.022623 0.808810
vn 0.766131 0.321264 0.556627
vn 0.808810 0.022623 0.587635
vn 0.900641 0.321264 0.292635
vn 0.950813 0.022623 0.308937
vn 0.946990 0.321263 0.000000
vn 0.999744 0.022623 0.000001
vn 0.000000 1.000000 -0.000001
vn 0.000000 1.000000 -0.000001
vn 0.000000 1.000000 -0.000001
vn 0.000000 1.000000 -0.000000
vn 0.000000 1.000000 -0.000001
vn 0.000000 1.000000 -0.000001
vn 0.000000 1.000000 -0.000001
vn 0.000000 1.000000 -0.000001
vn 0.000000 1.000000 0.000000
vn 0.000000 1.000000 0.000000
vn 0.000000 1.000000 0.000000
vn 0.000000 1.000000 0.000000
vn 0.000000 1.000000 0.000000
vn 0.000000 1.000000 0.000000
vn 0.000000 1.000000 0.000000
vn 0.000000 1.000000 0.000000
vn 0.000000 1.000000 0.000001
vn 0.000000 1.000000 0.000001
vn 0.000000 1.000000 0.000001
vn 0.000000 1.000000 0.000001
vn 0.000000 1.000000 0.000000
vn 0.000000 1.000000 0.000000
vn 0.000000 1.000000 0.000000
vn 0.000000 1.000000 0.000000
vn 0.000000 1.000000 0.000000
vn 0.000000 1.000000 0.000000
vn 0.000000 1.000000 -0.000000
vn 0.000000 1.000000 -0.000000
vn 0.000000 1.000000 -0.000001
vn 0.000000 1.000000 -0.000001
vn 0.000000 1.000000 -0.000000
vn 0.000000 1.000000 0.000000
vn 0.000000 1.000000 0.000000
vn 0.000000 1.000000 0.000000
vn 0.000000 1.000000 0.000000
vn 0.000000 1.000000 0.000000
vn 0.000000 1.000000 -0.000000
vn 0.000000 1.000000 0.000000
vn 0.000000 1.000000 0.000000
vn 0.000000 1.000000 -0.000000
vn 0.000000 1.000000 0.000000
vn 0.000000 1.000000 0.000000
vn 0.000000 1.000000 0.000000
vn 0.000000 1.000000 0.000000
vn 0.000000 1.000000 0.000000
vn 0.000000 1.000000 0.000000
vn 0.000000 1.000000 0.000000
vn 0.000000 1.000000 -0.000003
vn 0.000000 1.000000 -0.000003
vn 0.000000 1.000000 -0.000006
vn 0.000000 1.000000 -0.000006
vn 0.000000 1.000000 -0.000000
vn 0.000000 1.000000 -0.000000
vn 0.000000 1.000000 0.000000
vn 0.000000 1.000000 0.000000
vn 0.000000 1.000000 -0.000000
vn 0.000000 1.000000 -0.000000
vn 0.000000 1.000000 -0.000005
vn 0.000000 1.000000 0.000000
vn 0.000000 1.000000 0.000000
vn 0.000000 1.000000 0.000000
vn 0.000000 1.000000 0.000000
vn 0.000000 1.000000 0.000001
vn 0.000000 1.000000 0.000001
vn 0.000000 1.000000 0.000000
vn 0.000000 1.000000 0.000000
vn 0.000000 1.000000 0.000000
vn 0.000000 1.000000 0.000000
vn 0.000000 1.000000 0.000000
vn 0.000000 1.000000 0.000000
vn 0.000000 1.000000 0.000000
vn 0.000000 1.000000 0.000000
vn 0.000003 1.000000 0.000002
vn 0.000000 1.000000 -0.000003
vn 0.000000 1.000000 -0.000001
vn 0.000000 1.000000 -0.000001
vn 0.000000 1.000000 -0.000000
vn 0.000000 1.000000 -0.000000
vn 0.000000 1.000000 -0.000001
vn 0.000000 1.000000 -0.000001
vn 0.000000 1.000000 0.000001
vn 0.000000 1.000000 -0.000000
vn 0.000000 1.000000 0.000002
vn 0.000000 1.000000 0.000000
vn 0.000000 1.000000 -0.000000
vn -0.000002 1.000000 0.000000
vn -0.000002 1.000000 -0.000000
vn 0.000000 1.000000 0.000000
vn 0.000000 1.000000 -0.000001
vn 0.000000 1.000000 -0.000002
vn 0.000000 1.000000 -0.000002
vn 0.000000 1.000000 0.000000
vn 0.000000 1.000000 -0.000001
vn 0.000000 1.000000 -0.000001
vn 0.000000 1.000000 -0.000000
vn 0.000000 1.000000 0.000000
vn 0.000000 1.000000 0.000000
vn 0.000000 1.000000 0.000001
vn 0.000000 1.000000 0.000002
vn 0.000000 1.000000 -0.000001
vn 0.000000 1.000000 0.000001
vn 0.000000 1.000000 -0.000001
vn 0.000000 1.000000 -0.000001
vn 0.000001 1.000000 -0.000001
vn 0.000000 1.000000 0.000000
vn 0.000000 1.000000 0.000000
vn 0.000000 1.000000 -0.000004
vn 0.000000 1.000000 0.000000
vn 0.000000 1.000000 0.000000
vn 0.000000 1.000000 0.000000
vn 0.000000 1.000000 0.000000
vn 0.000000 1.000000 -0.000000
vn 0.000000 1.000000 0.000000
vn 0.000000 1.000000 0.000000
vn 0.000000 1.000000 -0.000000
vn -0.000006 1.000000 -0.000000
vn -0.000002 1.000000 0.000000
vn -0.000006 1.000000 -0.000000
vn 0.000000 1.000000 0.000000
vn 0.000000 1.000000 -0.000000
vn 0.000000 1.000000 0.000000
vn 0.000000 1.000000 0.000000
vn 0.000000 1.000000 0.000000
vn 0.000000 1.000000 0.000000
vn 0.000000 1.000000 -0.000002
vn 0.000000 1.000000 -0.000002
vn 0.000000 1.000000 -0.000000
vn 0.000000 1.000000 -0.000000
vn 0.000000 1.000000 0.000000
vn 0.000000 1.000000 0.000000
vn -0.000001 1.000000 0.000000
vn -0.000001 1.000000 0.000000
vn 0.000000 1.000000 -0.000003
vn 0.000000 1.000000 -0.000003
vn 0.000000 1.000000 -0.000003
vn -0.000001 1.000000 0.000000
vn 0.000012 1.000000 0.000000
vn 0.000012 1.000000 0.000000
vn 0.000001 1.000000 0.000000
vn 0.000004 1.000000 0.000000
vn 0.000000 1.000000 0.000000
vn 0.000000 1.000000 0.000000
vn 0.000000 1.000000 0.000000
vn 0.000000 1.000000 0.000000
vn 0.000000 1.000000 0.000000
vn 0.000000 1.000000 0.000000
vn 0.000000 1.000000 -0.000000
vn 0.000000 1.000000 -0.000000
vn 0.000002 1.000000 -0.000001
vn -0.000001 1.000000 0.000000
vn -0.000033 1.000000 0.000021
vn -0.000003 1.000000 0.000002
vn 0.000000 1.000000 0.000000
vn 0.000000 1.000000 0.000000
vn 0.000006 1.000000 0.000003
vn 0.000003 1.000000 0.000001
vn 0.000008 1.000000 0.000004
vn 0.000009 1.000000 0.000004
vn 0.000000 1.000000 -0.000000
vn 0.000000 1.000000 -0.000000
vn 0.000000 1.000000 -0.000001
vn 0.000000 1.000000 -0.000001
vn 0.000002 1.000000 0.000000
vn 0.000006 1.000000 0.000001
vn 0.000008 1.000000 0.000002
vn 0.000005 1.000000 0.000000
vn 0.000003 1.000000 -0.000000
vn -0.000002 1.000000 0.000000
vn -0.000002 1.000000 -0.000000
vn -0.000001 1.000000 0.000001
vn -0.000001 1.000000 0.000001
vn -0.000004 1.000000 0.000001
vn 0.000000 1.000000 0.000001
vn 0.000000 1.000000 0.000001
vn 0.000000 1.000000 -0.000001
vn 0.000000 1.000000 -0.000001
vn 0.000000 1.000000 -0.000001
vn 0.000000 1.000000 -0.000001
vn 0.000000 1.000000 0.000000
vn 0.000000 1.000000 0.000001
vn 0.000000 1.000000 -0.000000
vn 0.000000 1.000000 -0.000000
vn 0.000002 1.000000 -0.000001
vn 0.000001 1.000000 -0.000001
vn 0.000002 1.000000 -0.000001
vn 0.000002 1.000000 -0.000001
vn 0.000000 1.000000 -0.000001
vn 0.000000 1.000000 -0.000001
vn 0.000000 1.000000 -0.000001
vn 0.000000 1.000000 -0.000001
vn 0.000000 1.000000 -0.000000
vn 0.000000 1.000000 0.000000
vn 0.000000 1.000000 0.000000
vn 0.000000 1.000000 0.000000
vn 0.000000 1.000000 0.000001
vn 0.000000 1.000000 0.000001
vn 0.000000 1.000000 0.000002
vn 0.000000 1.000000 0.000002
vn 0.000000 1.000000 -0.000000
vn 0.000000 1.000000 0.000001
vn 0.000005 1.000000 -0.000001
vn 0.000004 1.000000 -0.000001
vn 0.000004 1.000000 0.000000
vn 0.000009 1.000000 0.000000
vn 0.000004 1.000000 0.000000
vn 0.000000 1.000000 -0.000001
vn 0.000000 1.000000 -0.000001
vn 0.000000 1.000000 -0.000002
vn 0.000000 1.000000 -0.000002
vn -0.000006 1.000000 0.000002
vn -0.000005 1.000000 0.000001
vn -0.000007 1.000000 -0.000001
vn -0.000007 1.000000 0.000004
vn -0.000007 1.000000 0.000003
vn -0.000007 1.000000 0.000002
vn -0.000007 1.000000 0.000002
vn -0.000007 1.000000 0.000001
vn -0.000003 1.000000 0.000006
vn -0.000005 1.000000 0.000011
vn -0.000002 1.000000 0.000005
vn 0.000004 1.000000 0.000008
vn 0.000004 1.000000 0.000007
vn 0.000000 1.000000 0.000000
vn 0.000007 1.000000 0.000012
vn 0.000001 1.000000 0.000003
vn -0.000001 1.000000 -0.000000
vn 0.000003 1.000000 -0.000001
vn 0.000001 1.000000 -0.000000
vn -0.000003 1.000000 -0.000002
vn -0.000007 1.000000 -0.000005
vn -0.000009 1.000000 -0.000005
vn -0.000005 1.000000 -0.000004
vn 0.000000 1.000000 -0.000001
vn 0.000000 1.000000 -0.000001
vn 0.000000 1.000000 0.000000
vn 0.000000 1.000000 0.000000
vn 0.000006 1.000000 -0.000001
vn 0.000007 1.000000 -0.000001
vn 0.000008 1.000000 -0.000002
vn -0.000004 1.000000 -0.000007
vn -0.000004 1.000000 -0.000008
vn -0.000007 1.000000 -0.000012
vn 0.000002 1.000000 -0.000000
vn 0.000013 1.000000 -0.000004
vn 0.000013 1.000000 -0.000004
vn 0.000002 1.000000 -0.000000
vn 0.000001 1.000000 0.000000
vn 0.000001 1.000000 0.000000
vn 0.000001 1.000000 0.000000
vn 0.000001 1.000000 0.000000
vn -0.000001 1.000000 -0.000000
vn -0.000001 1.000000 -0.000000
vn -0.000003 1.000000 -0.000001
vn -0.000003 1.000000 -0.000001
vn -0.000003 1.000000 -0.000001
vn -0.000003 1.000000 -0.000001
vn 0.974133 -0.000001 0.225975
vn 0.999612 -0.000000 0.027864
vn 0.999612 -0.000007 0.027863
vn 0.974133 -0.000008 0.225975
vn 0.985561 -0.000000 -0.169319
vn 0.984327 -0.000005 -0.176354
vn -0.522007 0.000000 0.852941
vn -0.522007 0.000000 0.852941
vn -0.522008 0.000003 0.852940
vn -0.522009 0.000002 0.852940
vn 0.979225 -0.000003 -0.202779
vn 0.979225 -0.000003 -0.202779
vn 0.516643 0.000000 -0.856201
vn 0.516643 0.000000 -0.856201
vn 0.516643 0.000000 -0.856201
vn 0.516643 0.000000 -0.856201
vn -0.332411 0.000000 0.943134
vn -0.332412 0.000001 0.943134
vn 0.226615 0.000000 -0.973984
vn 0.246074 0.000000 -0.969251
vn 0.206702 0.000000 -0.978404
vn 0.206702 0.000000 -0.978404
vn 0.108969 -0.000000 0.994045
vn 0.108970 -0.000000 0.994045
vn -0.538934 0.000000 -0.842348
vn -0.538934 0.000000 -0.842348
vn -0.538934 0.000000 -0.842348
vn -0.538934 0.000000 -0.842348
vn 0.313532 -0.000000 0.949578
vn 0.313533 -0.000000 0.949577
vn -0.989155 -0.000010 0.146873
vn -0.989155 -0.000010 0.146873
vn -0.989156 -0.000021 0.146872
vn -0.989156 -0.000021 0.146872
vn 0.313540 -0.000001 0.949575
vn 0.313534 -0.000000 0.949577
vn 0.313535 -0.000001 0.949577
vn 0.313541 -0.000002 0.949575
vn -0.916064 -0.000002 -0.401033
vn -0.916064 -0.000002 -0.401033
vn -0.916064 -0.000005 -0.401033
vn -0.916063 -0.000005 -0.401033
vn -0.835049 0.000012 -0.550176
vn -0.835047 0.000013 -0.550179
vn -0.835047 0.000013 -0.550179
vn -0.835049 0.000012 -0.550176
vn -0.960520 0.000026 0.278212
vn -0.960520 0.000026 0.278212
vn -0.960520 0.000026 0.278212
vn -0.960520 0.000026 0.278212
vn -0.602165 0.000015 0.798372
vn -0.602183 0.000016 0.798358
vn -0.602183 0.000016 0.798358
vn -0.602165 0.000015 0.798372
vn -0.010833 -0.000001 -0.999941
vn -0.264840 0.000005 -0.964292
vn -0.264840 0.000005 -0.964292
vn -0.010829 -0.000001 -0.999941
vn -0.835051 0.000011 -0.550173
vn -0.835051 0.000011 -0.550173
vn -0.602203 0.000017 0.798343
vn -0.602203 0.000017 0.798343
vn -0.097658 0.000005 0.995220
vn -0.097719 0.000002 0.995214
vn -0.097719 0.000002 0.995214
vn -0.097658 0.000005 0.995220
vn 0.133697 -0.000005 -0.991022
vn 0.133697 -0.000005 -0.991022
vn -0.097758 0.000001 0.995210
vn -0.097758 0.000001 0.995210
vn 0.987684 0.000006 -0.156463
vn 0.909655 0.000005 -0.415364
vn 0.909655 0.000005 -0.415364
vn 0.987684 0.000006 -0.156463
vn 0.778076 0.000004 -0.628170
vn 0.778076 0.000004 -0.628170
vn -0.097798 0.000004 0.995206
vn -0.097798 0.000004 0.995206
vn 0.635532 0.000018 0.772075
vn 0.783553 0.000009 0.621325
vn 0.783555 0.000009 0.621322
vn 0.635532 0.000018 0.772075
vn 0.898142 0.000000 0.439705
vn 0.898142 0.000000 0.439705
vn -0.994509 -0.000000 0.104655
vn -0.994509 -0.000000 0.104654
vn -0.994509 -0.000000 0.104654
vn -0.994509 -0.000000 0.104655
vn -0.082631 -0.000001 0.996580
vn -0.082628 -0.000001 0.996580
vn -0.082628 -0.000001 0.996580
vn -0.082631 -0.000001 0.996580
vn -0.082631 0.000000 0.996580
vn -0.082631 0.000000 0.996580
vn -0.082628 0.000000 0.996580
vn -0.082628 0.000000 0.996580
vn -0.082627 0.000000 0.996580
vn -0.082627 0.000000 0.996580
vn -0.082632 0.000000 0.996580
vn -0.082632 0.000000 0.996580
vn -0.082629 0.000000 0.996580
vn -0.082629 0.000000 0.996580
vn 0.999744 0.000000 0.022636
vn 0.999744 0.000000 0.022637
vn 0.999744 0.000000 0.022637
vn 0.999744 0.000000 0.022636
vn 0.999744 0.000000 0.022637
vn 0.999744 0.000000 0.022637
vn 0.999744 0.000000 0.022637
vn 0.999744 0.000000 0.022637
vn 0.103660 -0.000001 -0.994613
vn 0.131963 -0.000001 -0.991255
vn 0.131963 -0.000001 -0.991255
vn 0.103660 -0.000001 -0.994613
vn 0.108856 0.000000 -0.994057
vn 0.037993 -0.000001 -0.999278
vn 0.037993 -0.000001 -0.999278
vn 0.108856 0.000000 -0.994057
vn 0.037993 -0.000001 -0.999278
vn 0.037993 -0.000001 -0.999278
vn -0.991280 0.000000 -0.131770
vn -0.999914 0.000000 -0.013107
vn -0.999914 0.000000 -0.013107
vn -0.991280 0.000000 -0.131770
vn 0.197363 0.000000 -0.980331
vn 0.197363 0.000000 -0.980331
vn 0.197351 0.000000 -0.980333
vn 0.197351 0.000000 -0.980333
vn 0.197350 -0.000001 -0.980333
vn 0.197350 -0.000001 -0.980333
vn -0.747643 -0.000000 -0.664100
vn -0.747643 -0.000000 -0.664100
vn -0.747643 -0.000000 -0.664100
vn -0.747643 -0.000000 -0.664100
vn 0.898141 0.000005 0.439708
vn 0.898141 0.000005 0.439708
vn 0.898141 0.000005 0.439708
vn 0.898141 0.000005 0.439708
vn 0.999612 0.000007 0.027864
vn 0.987616 0.000008 -0.156890
vn 0.974133 0.000006 0.225976
vn -0.538933 0.000000 -0.842349
vn -0.538933 0.000000 -0.842349
vn 0.999965 -0.000000 -0.008336
vn 0.999992 0.000000 0.003979
vn 0.999992 0.000000 0.003979
vn 0.999965 -0.000000 -0.008336
vn -0.806591 0.000001 -0.591110
vn -0.806591 0.000001 -0.591110
vn -0.806591 0.000001 -0.591110
vn -0.806591 0.000001 -0.591110
vn 0.996557 -0.000004 0.082909
vn 0.994710 -0.000002 -0.102723
vn 0.994710 -0.000002 -0.102723
vn 0.996557 -0.000004 0.082910
vn 0.801916 0.000000 -0.597437
vn 0.653165 0.000000 -0.757216
vn 0.653165 0.000000 -0.757216
vn 0.801916 0.000000 -0.597437
vn 0.399760 0.000001 -0.916620
vn 0.399760 0.000001 -0.916620
vn -0.000001 0.000003 -1.000000
vn -0.000001 0.000003 -1.000000
vn -0.399761 0.000002 -0.916620
vn -0.399761 0.000002 -0.916619
vn -0.564516 0.000001 -0.825422
vn -0.564516 0.000001 -0.825422
vn -0.993467 0.000000 -0.114118
vn -0.999608 0.000002 -0.027978
vn -0.999608 0.000002 -0.027978
vn -0.993467 0.000000 -0.114118
vn -0.997928 0.000000 0.064342
vn -0.997928 0.000000 0.064342
vn -0.997928 0.000000 0.064342
vn -0.997928 0.000000 0.064342
vn -0.801914 0.000000 0.597439
vn -0.671795 0.000000 0.740737
vn -0.671795 0.000000 0.740737
vn -0.801914 0.000000 0.597439
vn -0.293997 0.000000 -0.955806
vn -0.293997 0.000000 -0.955806
vn -0.293997 0.000000 -0.955806
vn -0.293997 0.000000 -0.955806
vn -0.399762 0.000000 0.916619
vn -0.399762 0.000000 0.916619
vn 0.516641 0.000000 -0.856202
vn 0.562098 0.000000 -0.827070
vn 0.562098 0.000000 -0.827070
vn 0.516641 0.000000 -0.856202
vn 0.562098 0.000001 -0.827071
vn 0.562098 0.000001 -0.827071
vn -0.000002 0.000000 1.000000
vn -0.000002 0.000000 1.000000
vn 0.206701 0.000000 -0.978404
vn 0.206702 0.000000 -0.978404
vn 0.375481 0.000000 0.926830
vn 0.375481 0.000000 0.926830
vn 0.564515 0.000000 0.825423
vn 0.564515 0.000000 0.825423
vn 0.936436 0.000000 0.350838
vn 0.936436 0.000000 0.350838
vn 0.936436 0.000000 0.350838
vn 0.936436 0.000000 0.350838
vn 0.543031 0.000000 -0.839713
vn 0.543031 0.000000 -0.839713
vn 0.543031 0.000000 -0.839713
vn 0.543031 0.000000 -0.839713
vn -0.916064 0.000000 -0.401033
vn -0.916064 0.000000 -0.401033
vn 0.998661 -0.000002 0.051727
vn 0.998661 -0.000002 0.051727
vn -0.998875 0.000002 0.047421
vn -0.999792 0.000000 0.020391
vn -0.999792 0.000000 0.020391
vn -0.998875 0.000002 0.047421
vn 0.990640 -0.000004 0.136501
vn 0.990640 -0.000004 0.136501
vn -0.987165 0.000006 -0.159703
vn -0.987165 0.000006 -0.159702
vn -0.934861 0.000008 -0.355015
vn -0.929936 0.000009 -0.367722
vn -0.929936 0.000009 -0.367722
vn -0.934861 0.000008 -0.355015
vn -0.949745 0.000001 0.313024
vn -0.949745 0.000001 0.313024
vn -0.949745 0.000001 0.313024
vn -0.949745 0.000001 0.313024
vn -0.217914 -0.000004 0.975968
vn -0.315019 -0.000004 0.949085
vn -0.315019 -0.000004 0.949085
vn -0.217914 -0.000004 0.975968
vn 0.004452 -0.000001 0.999990
vn 0.004452 -0.000001 0.999990
vn 0.337181 -0.000001 0.941440
vn 0.337181 -0.000001 0.941440
vn 0.520126 -0.000001 0.854089
vn 0.520126 -0.000001 0.854089
vn -0.999941 0.000005 0.010873
vn -0.999941 0.000005 0.010873
vn 0.999926 -0.000003 -0.012128
vn 0.999994 -0.000002 -0.003505
vn 0.999994 -0.000002 -0.003505
vn 0.999926 -0.000003 -0.012128
vn -0.998826 0.000007 -0.048446
vn -0.998826 0.000007 -0.048446
vn -0.994440 0.000003 -0.105301
vn -0.994440 0.000003 -0.105301
vn 0.999989 -0.000003 -0.004609
vn 0.999989 -0.000003 -0.004609
vn -0.991721 -0.000000 -0.128409
vn -0.991721 -0.000000 -0.128409
vn 0.999971 0.000001 0.007617
vn 0.999971 0.000001 0.007617
vn -0.989679 -0.000001 -0.143301
vn -0.989679 -0.000001 -0.143301
vn 0.847964 0.000002 -0.530054
vn 0.847966 0.000003 -0.530051
vn 0.847966 0.000003 -0.530051
vn 0.847964 0.000002 -0.530054
vn 0.999928 0.000004 -0.011993
vn 0.999928 0.000004 -0.011993
vn -0.999528 -0.000001 -0.030712
vn -0.999528 -0.000001 -0.030712
vn -0.934162 0.000000 0.356849
vn -0.934162 0.000000 0.356849
vn 0.847964 0.000001 -0.530054
vn 0.847964 0.000001 -0.530054
vn -0.522006 -0.000001 0.852942
vn -0.522007 -0.000003 0.852941
vn 0.288813 0.000001 -0.957386
vn 0.288815 0.000002 -0.957385
vn 0.288815 0.000002 -0.957385
vn 0.288813 0.000001 -0.957386
vn -0.332410 0.000000 0.943135
vn 0.188352 0.000000 -0.982102
vn 0.188352 0.000000 -0.982102
vn 0.108969 0.000000 0.994045
vn 0.070923 0.000000 -0.997482
vn 0.070923 0.000000 -0.997482
vn 0.313532 -0.000000 0.949578
vn -0.142276 0.000000 -0.989827
vn -0.142276 0.000000 -0.989827
vn 0.313533 -0.000000 0.949577
vn -0.324260 0.000000 -0.945968
vn -0.324260 0.000000 -0.945968
vn 0.800110 -0.000001 0.599853
vn 0.800110 -0.000001 0.599853
vn 0.800110 -0.000001 0.599853
vn 0.800110 -0.000001 0.599853
vn 0.999390 -0.000001 -0.034935
vn 0.999390 -0.000001 -0.034935
vn -0.324261 0.000000 -0.945968
vn -0.324261 0.000000 -0.945968
vn 0.313539 -0.000000 0.949575
vn -0.989155 0.000001 0.146875
vn -0.989155 0.000001 0.146875
vn 0.835053 -0.000011 0.550170
vn 0.835053 -0.000013 0.550170
vn 0.835048 -0.000013 0.550176
vn 0.835051 -0.000011 0.550173
vn 0.835044 -0.000013 0.550183
vn 0.835048 -0.000011 0.550177
vn 0.960519 -0.000027 -0.278213
vn 0.960519 -0.000027 -0.278213
vn 0.960520 -0.000027 -0.278212
vn 0.960520 -0.000027 -0.278212
vn 0.960520 -0.000027 -0.278211
vn 0.960520 -0.000027 -0.278211
vn 0.602180 -0.000015 -0.798361
vn 0.602187 -0.000015 -0.798355
vn 0.602187 -0.000015 -0.798355
vn 0.602169 -0.000015 -0.798368
vn 0.602187 -0.000015 -0.798355
vn 0.602159 -0.000015 -0.798376
vn 0.010836 0.000001 0.999941
vn 0.264851 -0.000004 0.964289
vn 0.264840 -0.000004 0.964292
vn 0.010832 0.000001 0.999941
vn 0.264829 -0.000004 0.964295
vn 0.010828 0.000001 0.999941
vn 0.835053 -0.000010 0.550170
vn 0.835052 -0.000010 0.550170
vn 0.835052 -0.000010 0.550171
vn 0.602196 -0.000015 -0.798349
vn 0.602207 -0.000015 -0.798340
vn 0.602219 -0.000015 -0.798331
vn 0.097699 -0.000004 -0.995216
vn 0.097730 -0.000001 -0.995213
vn 0.097719 -0.000001 -0.995214
vn 0.097658 -0.000004 -0.995220
vn 0.097708 -0.000001 -0.995215
vn 0.097618 -0.000004 -0.995224
vn -0.133696 0.000004 0.991022
vn -0.133696 0.000004 0.991022
vn -0.133696 0.000004 0.991022
vn 0.097749 -0.000001 -0.995211
vn 0.097757 -0.000001 -0.995210
vn 0.097765 -0.000001 -0.995210
vn -0.987683 -0.000006 0.156466
vn -0.909656 -0.000005 0.415362
vn -0.909655 -0.000005 0.415364
vn -0.987684 -0.000006 0.156464
vn -0.909655 -0.000005 0.415365
vn -0.987684 -0.000006 0.156461
vn -0.778081 -0.000004 0.628164
vn -0.778077 -0.000004 0.628169
vn -0.778073 -0.000004 0.628174
vn 0.097768 -0.000003 -0.995209
vn 0.097797 -0.000003 -0.995206
vn 0.097826 -0.000003 -0.995203
vn -0.635516 -0.000016 -0.772088
vn -0.783545 -0.000009 -0.621335
vn -0.783554 -0.000009 -0.621324
vn -0.635532 -0.000016 -0.772075
vn -0.783562 -0.000009 -0.621314
vn -0.635548 -0.000016 -0.772062
vn -0.898142 -0.000001 -0.439706
vn -0.898142 -0.000001 -0.439705
vn -0.898143 -0.000001 -0.439704
s 1
g pCylinder1
usemtl lambert9SG
f 41/1/1 42/2/2 22/3/3 21/4/4
f 42/2/2 43/5/5 23/6/6 22/3/3
f 43/5/5 44/7/7 24/8/8 23/6/6
f 44/7/7 45/199/9 25/9/10 24/8/8
f 45/199/9 46/200/11 26/217/12 25/9/10
f 46/10/11 47/12/13 27/13/14 26/11/12
f 47/12/13 48/14/15 28/15/16 27/13/14
f 48/14/15 49/16/17 29/17/18 28/15/16
f 121/18/19 122/19/20 123/20/21 124/21/22
f 50/22/23 51/23/24 31/24/25 30/25/26
f 51/23/24 52/26/27 32/27/28 31/24/25
f 52/26/27 53/28/29 33/29/30 32/27/28
f 53/28/29 54/30/31 34/31/32 33/29/30
f 54/30/31 55/32/33 35/33/34 34/31/32
f 55/32/33 56/34/35 36/35/36 35/33/34
f 56/34/35 57/36/37 37/37/38 36/35/36
f 57/36/37 58/38/39 38/39/40 37/37/38
f 58/38/39 59/40/41 39/41/42 38/39/40
f 59/40/41 60/42/43 40/43/44 39/41/42
f 60/42/43 41/1/1 21/4/4 40/43/44
s 4
usemtl lambert10SG
f 146/44/45 145/45/46 147/46/47
f 148/47/48 146/44/45 147/46/47
f 149/48/49 148/47/48 147/46/47
f 150/212/50 149/48/49 147/46/47
f 151/213/51 150/212/50 147/46/47
f 152/50/52 151/49/51 147/46/47
f 153/51/53 152/50/52 147/46/47
f 154/52/54 153/51/53 147/46/47
f 155/53/55 154/52/54 147/46/47
f 156/54/56 155/53/55 147/46/47
f 157/55/57 156/54/56 147/46/47
f 158/56/58 157/55/57 147/46/47
f 159/57/59 158/56/58 147/46/47
f 160/58/60 159/57/59 147/46/47
f 161/59/61 160/58/60 147/46/47
f 162/60/62 161/59/61 147/46/47
f 163/61/63 162/60/62 147/46/47
f 164/62/64 163/61/63 147/46/47
f 165/63/65 164/62/64 147/46/47
f 145/45/46 165/63/65 147/46/47
s 5
usemtl lambert16SG
f 366/412/66 367/413/67 368/66/68
f 367/413/67 369/414/69 368/66/68
f 369/414/69 370/415/70 368/66/68
f 370/415/70 371/416/71 368/66/68
f 371/417/71 372/418/72 368/203/68
f 372/419/72 373/420/73 368/66/68
f 373/420/73 374/421/74 368/66/68
f 374/421/74 375/422/75 368/66/68
f 375/422/75 376/423/76 368/66/68
f 376/423/76 377/424/77 368/66/68
f 377/424/77 378/425/78 368/66/68
s 6
f 387/456/79 388/434/80 389/435/81 390/436/82 391/437/83
s 7
f 285/305/84 287/307/85 255/274/86
f 255/274/86 284/304/87 285/305/84
s 6
f 392/439/88 393/276/89 394/438/90
s 5
f 379/426/91 380/427/92 368/66/68
f 380/427/92 381/428/93 368/66/68
s 6
f 395/440/94 396/441/95 397/442/96 398/443/97
s 5
f 382/429/98 383/430/99 368/66/68
f 383/430/99 366/412/66 368/66/68
s 1
usemtl lambert10SG
f 1/84/100 2/85/101 42/2/2 41/1/1
f 2/85/101 3/86/102 43/5/5 42/2/2
f 3/86/102 4/87/103 44/7/7 43/5/5
f 4/87/103 5/209/104 45/199/9 44/7/7
f 5/209/104 6/204/105 46/200/11 45/199/9
f 6/88/105 7/89/106 47/12/13 46/10/11
f 7/89/106 8/90/107 48/14/15 47/12/13
f 8/90/107 9/91/108 49/16/17 48/14/15
f 9/91/108 10/92/109 50/22/23 49/16/17
f 10/92/109 11/93/110 51/23/24 50/22/23
f 11/93/110 12/94/111 52/26/27 51/23/24
f 12/94/111 13/95/112 53/28/29 52/26/27
f 13/95/112 14/96/113 54/30/31 53/28/29
f 14/96/113 15/97/114 55/32/33 54/30/31
f 15/97/114 16/98/115 56/34/35 55/32/33
f 16/98/115 17/99/116 57/36/37 56/34/35
f 17/99/116 18/100/117 58/38/39 57/36/37
f 18/100/117 19/101/118 59/40/41 58/38/39
f 19/101/118 20/102/119 60/42/43 59/40/41
f 20/102/119 1/84/100 41/1/1 60/42/43
usemtl lambert16SG
f 166/103/120 167/104/121 62/105/122 61/106/123
f 167/104/121 168/107/124 63/108/125 62/105/122
f 168/107/124 169/109/126 64/110/127 63/108/125
f 169/109/126 170/216/128 65/206/129 64/110/127
f 170/216/128 171/205/130 66/207/131 65/206/129
f 171/111/130 172/113/132 67/114/133 66/112/131
f 172/113/132 173/115/134 68/116/135 67/114/133
f 173/115/134 174/117/136 69/118/137 68/116/135
f 174/117/136 175/119/138 70/120/139 69/118/137
f 175/119/138 176/121/140 71/122/141 70/120/139
f 176/121/140 177/123/142 72/124/143 71/122/141
f 177/123/142 178/125/144 73/126/145 72/124/143
f 178/125/144 179/127/146 74/128/147 73/126/145
f 179/127/146 180/129/148 75/130/149 74/128/147
f 180/129/148 181/131/150 76/132/151 75/130/149
f 181/131/150 182/133/152 77/134/153 76/132/151
f 182/133/152 183/135/154 78/136/155 77/134/153
f 183/135/154 184/137/156 79/138/157 78/136/155
f 184/137/156 185/139/158 80/140/159 79/138/157
f 185/139/158 166/103/120 61/106/123 80/140/159
s 12
f 61/106/160 62/105/161 82/141/162 81/142/163
f 62/105/161 63/108/164 83/143/165 82/141/162
f 63/108/164 64/110/166 84/144/167 83/143/165
f 64/110/166 65/206/168 85/145/169 84/144/167
f 65/206/168 66/207/170 86/208/171 85/145/169
f 66/112/170 67/114/172 87/147/173 86/146/171
f 67/114/172 68/116/174 88/148/175 87/147/173
f 68/116/174 69/118/176 89/149/177 88/148/175
f 69/118/176 70/120/178 90/150/179 89/149/177
f 70/120/178 71/122/180 91/151/181 90/150/179
f 71/122/180 72/124/182 92/152/183 91/151/181
f 72/124/182 73/126/184 93/153/185 92/152/183
f 73/126/184 74/128/186 94/154/187 93/153/185
f 74/128/186 75/130/188 95/155/189 94/154/187
f 75/130/188 76/132/190 96/156/191 95/155/189
f 76/132/190 77/134/192 97/157/193 96/156/191
f 77/134/192 78/136/194 98/158/195 97/157/193
f 78/136/194 79/138/196 99/159/197 98/158/195
f 79/138/196 80/140/198 100/160/199 99/159/197
f 80/140/198 61/106/160 81/142/163 100/160/199
s 13
f 81/142/200 82/141/201 102/65/202 101/64/203
f 82/141/201 83/143/204 103/67/205 102/65/202
f 83/143/204 84/144/206 104/68/207 103/67/205
f 84/144/206 85/145/208 105/201/209 104/68/207
f 85/145/208 86/208/210 106/202/211 105/201/209
f 86/146/210 87/147/212 107/70/213 106/69/211
f 87/147/212 88/148/214 108/71/215 107/70/213
f 88/148/214 89/149/216 109/72/217 108/71/215
f 89/149/216 90/150/218 110/73/219 109/72/217
f 90/150/218 91/151/220 111/74/221 110/73/219
f 91/151/220 92/152/222 112/75/223 111/74/221
f 92/152/222 93/153/224 113/76/225 112/75/223
f 93/153/224 94/154/226 114/77/227 113/76/225
f 94/154/226 95/155/228 115/78/229 114/77/227
f 95/155/228 96/156/230 116/79/231 115/78/229
f 96/156/230 97/157/232 117/80/233 116/79/231
f 97/157/232 98/158/234 118/81/235 117/80/233
f 98/158/234 99/159/236 119/82/237 118/81/235
f 99/159/236 100/160/238 120/83/239 119/82/237
f 100/160/238 81/142/200 101/64/203 120/83/239
s 1
usemtl lambert7SG
f 49/16/17 50/22/23 122/19/20 121/18/19
usemtl lambert9SG
f 50/22/23 30/25/26 123/20/21 122/19/20
usemtl lambert7SG
f 30/25/26 29/17/18 124/21/22 123/20/21
usemtl lambert9SG
f 29/17/18 49/16/17 121/18/19 124/21/22
s 4
usemtl lambert10SG
f 2/85/240 1/84/241 125/161/242 126/162/243
f 3/86/244 2/85/240 126/162/243 127/163/245
f 4/87/246 3/86/244 127/163/245 128/164/247
f 5/209/248 4/87/246 128/164/247 129/211/249
f 6/204/250 5/209/248 129/211/249 130/210/251
f 7/89/252 6/88/250 130/165/251 131/166/253
f 8/90/254 7/89/252 131/166/253 132/167/255
f 9/91/256 8/90/254 132/167/255 133/168/257
f 10/92/258 9/91/256 133/168/257 134/169/259
f 11/93/260 10/92/258 134/169/259 135/170/261
f 12/94/262 11/93/260 135/170/261 136/171/263
f 13/95/264 12/94/262 136/171/263 137/172/265
f 14/96/266 13/95/264 137/172/265 138/173/267
f 15/97/268 14/96/266 138/173/267 139/174/269
f 16/98/270 15/97/268 139/174/269 140/175/271
f 17/99/272 16/98/270 140/175/271 141/176/273
f 18/100/274 17/99/272 141/176/273 142/177/275
f 19/101/276 18/100/274 142/177/275 143/178/277
f 20/102/278 19/101/276 143/178/277 144/179/279
f 1/84/241 20/102/278 144/179/279 125/161/242
f 126/162/243 125/161/242 145/45/46 146/44/45
f 127/163/245 126/162/243 146/44/45 148/47/48
f 128/164/247 127/163/245 148/47/48 149/48/49
f 129/211/249 128/164/247 149/48/49 150/212/50
f 130/210/251 129/211/249 150/212/50 151/213/51
f 131/166/253 130/165/251 151/49/51 152/50/52
f 132/167/255 131/166/253 152/50/52 153/51/53
f 133/168/257 132/167/255 153/51/53 154/52/54
f 134/169/259 133/168/257 154/52/54 155/53/55
f 135/170/261 134/169/259 155/53/55 156/54/56
f 136/171/263 135/170/261 156/54/56 157/55/57
f 137/172/265 136/171/263 157/55/57 158/56/58
f 138/173/267 137/172/265 158/56/58 159/57/59
f 139/174/269 138/173/267 159/57/59 160/58/60
f 140/175/271 139/174/269 160/58/60 161/59/61
f 141/176/273 140/175/271 161/59/61 162/60/62
f 142/177/275 141/176/273 162/60/62 163/61/63
f 143/178/277 142/177/275 163/61/63 164/62/64
f 144/179/279 143/178/277 164/62/64 165/63/65
f 125/161/242 144/179/279 165/63/65 145/45/46
s 1
usemtl lambert9SG
f 186/180/280 187/181/281 225/238/282 206/218/283
f 187/181/281 188/182/284 224/237/285 225/238/282
f 188/182/284 189/183/286 223/236/287 224/237/285
f 189/183/286 190/214/288 222/235/289 223/236/287
f 190/214/288 191/215/290 221/233/291 222/235/289
f 191/184/290 192/185/292 220/232/293 221/234/291
f 192/185/292 193/186/294 219/231/295 220/232/293
f 193/186/294 194/187/296 218/230/297 219/231/295
f 194/187/296 195/188/298 217/229/299 218/230/297
f 195/188/298 196/189/300 216/228/301 217/229/299
f 196/189/300 197/190/302 215/227/303 216/228/301
f 197/190/302 198/191/304 214/226/305 215/227/303
f 198/191/304 199/192/306 213/225/307 214/226/305
f 199/192/306 200/193/308 212/224/309 213/225/307
f 200/193/308 201/194/310 211/223/311 212/224/309
f 201/194/310 202/195/312 210/222/313 211/223/311
f 202/195/312 203/196/314 209/221/315 210/222/313
f 203/196/314 204/197/316 208/220/317 209/221/315
f 204/197/316 205/198/318 207/219/319 208/220/317
f 205/198/318 186/180/280 206/218/283 207/219/319
f 21/4/4 22/3/3 187/181/281 186/180/280
f 22/3/3 23/6/6 188/182/284 187/181/281
f 23/6/6 24/8/8 189/183/286 188/182/284
f 24/8/8 25/9/10 190/214/288 189/183/286
f 25/9/10 26/217/12 191/215/290 190/214/288
f 26/11/12 27/13/14 192/185/292 191/184/290
f 27/13/14 28/15/16 193/186/294 192/185/292
f 28/15/16 29/17/18 194/187/296 193/186/294
f 29/17/18 30/25/26 195/188/298 194/187/296
f 30/25/26 31/24/25 196/189/300 195/188/298
f 31/24/25 32/27/28 197/190/302 196/189/300
f 32/27/28 33/29/30 198/191/304 197/190/302
f 33/29/30 34/31/32 199/192/306 198/191/304
f 34/31/32 35/33/34 200/193/308 199/192/306
f 35/33/34 36/35/36 201/194/310 200/193/308
f 36/35/36 37/37/38 202/195/312 201/194/310
f 37/37/38 38/39/40 203/196/314 202/195/312
f 38/39/40 39/41/42 204/197/316 203/196/314
f 39/41/42 40/43/44 205/198/318 204/197/316
f 40/43/44 21/4/4 186/180/280 205/198/318
usemtl lambert16SG
f 207/219/319 206/218/283 166/103/120 185/139/158
f 208/220/317 207/219/319 185/139/158 184/137/156
f 209/221/315 208/220/317 184/137/156 183/135/154
f 210/222/313 209/221/315 183/135/154 182/133/152
f 211/223/311 210/222/313 182/133/152 181/131/150
f 212/224/309 211/223/311 181/131/150 180/129/148
f 213/225/307 212/224/309 180/129/148 179/127/146
f 214/226/305 213/225/307 179/127/146 178/125/144
f 215/227/303 214/226/305 178/125/144 177/123/142
f 216/228/301 215/227/303 177/123/142 176/121/140
usemtl lambert11SG
f 217/229/299 216/228/301 176/121/140 175/119/138
f 218/230/297 217/229/299 175/119/138 174/117/136
f 219/231/295 218/230/297 174/117/136 173/115/134
f 220/232/293 219/231/295 173/115/134 172/113/132
usemtl lambert16SG
f 221/234/291 220/232/293 172/113/132 171/111/130
f 222/235/289 221/233/291 171/205/130 170/216/128
f 223/236/287 222/235/289 170/216/128 169/109/126
f 224/237/285 223/236/287 169/109/126 168/107/124
f 225/238/282 224/237/285 168/107/124 167/104/121
f 206/218/283 225/238/282 167/104/121 166/103/120
s 15
f 101/64/320 102/65/321 227/240/322 226/239/323
f 102/65/324 103/67/325 228/241/326 265/285/327 227/240/322
s off
f 103/67/328 104/68/329 229/242/330 228/241/331
f 104/68/332 105/201/333 230/243/334 229/242/335
f 105/201/336 106/202/337 231/244/338 230/243/339
f 106/69/340 107/70/341 232/246/342 231/245/343
s 17
f 107/70/344 108/71/345 233/247/346 232/246/347
f 108/71/348 109/72/349 234/248/350 233/247/346
f 109/72/351 110/73/352 235/249/353 234/248/350
f 110/73/354 111/74/355 236/250/356 235/249/353
f 111/74/357 112/75/358 237/251/359 236/250/356
f 273/293/360 274/294/361 238/252/362
s 23
f 274/294/363 275/295/364 239/253/365 238/252/366
s 24
f 275/295/367 276/296/368 240/254/369 239/253/370
s 25
f 276/296/371 277/297/372 241/255/373 240/254/374
s 15
f 277/297/375 278/298/376 241/255/377
f 117/80/378 118/81/379 243/257/380 242/256/381
f 118/81/382 119/82/383 244/258/384 243/257/380
f 119/82/385 120/83/386 245/259/387 244/258/384
f 120/83/388 101/64/389 226/239/323 245/259/387
f 226/239/323 227/240/322 247/261/390 246/260/391
s 6
f 399/444/392 400/445/393 401/446/394 402/473/395
f 401/446/394 403/447/396 404/263/397 402/473/395
f 403/447/396 405/448/398 406/264/399 404/263/397
f 405/448/398 407/449/400 408/265/401 406/264/399
f 407/450/400 409/451/402 410/267/403 408/266/401
f 409/451/402 411/452/404 410/267/403
s 17
f 233/247/346 234/248/350 250/269/405 249/268/406
f 234/248/350 235/249/353 251/270/407 250/269/405
f 235/249/353 236/250/356 252/271/408 251/270/407
f 271/291/409 272/292/410 253/272/411
s 6
f 412/453/412 413/454/413 414/455/414 388/434/80 387/456/79
f 414/455/414 415/457/415 416/458/416 417/459/417 388/434/80
f 415/457/415 418/460/418 392/439/88 419/461/419 416/458/416
f 418/460/418 420/462/420 393/276/89 392/439/88
f 420/462/420 421/463/421 422/464/422 423/465/423 393/276/89
s 15
f 279/299/424 280/300/425 257/277/426
f 243/257/380 244/258/384 259/279/427 258/278/428
f 244/258/384 245/259/387 260/280/429 259/279/427
f 245/259/387 226/239/323 246/260/391 260/280/429
f 258/278/428 259/279/427 262/282/430 261/281/431
f 259/279/427 260/280/429 263/283/432 262/282/430
f 260/280/429 246/260/391 264/284/433 263/283/432
f 246/260/391 247/261/390 264/284/433
f 227/240/322 265/285/327 247/261/390
s 17
f 232/246/347 233/247/346 249/268/406 266/286/434
f 267/287/435 266/286/434 249/268/406
f 249/268/406 250/269/405 268/288/436 281/301/437 267/287/435
f 250/269/405 251/270/407 269/289/438 268/288/436
f 251/270/407 252/271/408 270/290/439 269/289/438
f 252/271/408 271/291/409 270/290/439
f 236/250/356 237/251/359 272/292/410 271/291/409 252/271/408
f 237/251/359 273/293/360 272/292/410
f 112/75/440 113/76/441 274/294/361 273/293/360 237/251/359
s 23
f 113/76/442 114/77/443 275/295/364 274/294/363
s 24
f 114/77/444 115/78/445 276/296/368 275/295/367
s 25
f 115/78/446 116/79/447 277/297/372 276/296/371
s 15
f 116/79/448 117/80/449 242/256/381 278/298/376 277/297/375
f 279/299/424 278/298/376 242/256/381
f 242/256/381 243/257/380 258/278/428 280/300/425 279/299/424
f 261/281/431 280/300/425 258/278/428
s 5
f 384/431/450 379/426/91 368/66/68
f 385/432/451 384/431/450 368/66/68
s off
f 254/273/452 287/307/453 288/308/454
s 5
f 386/433/455 385/432/451 368/66/68
f 378/425/78 386/433/455 368/66/68
s 32
f 352/379/456 351/380/457 353/381/458 354/382/459
f 353/381/458 355/383/460 356/384/461 357/385/462 354/382/459
f 356/384/461 358/386/463 359/387/464 360/388/465 357/385/462
f 359/387/464 361/389/466 362/390/467 360/388/465
s 6
f 393/276/89 423/465/423 424/466/468 394/438/90
s 32
f 364/391/469 363/392/470 365/393/471
f 361/389/466 364/391/469 365/393/471 362/390/467
s 6
f 396/441/95 425/467/472 426/468/473 397/442/96
f 425/467/472 427/469/474 428/470/475 426/468/473
f 427/469/474 399/444/392 429/471/476 430/472/477 428/470/475
f 399/444/392 402/473/395 429/471/476
f 402/473/395 404/263/397 431/474/478
f 404/263/397 406/264/399 432/475/479 431/474/478
f 406/264/399 408/265/401 433/476/480 432/477/479
f 408/266/401 410/267/403 434/478/481 433/479/480
f 410/267/403 411/452/404 435/480/482 436/481/483 434/478/481
f 435/480/482 437/482/484 438/483/485 439/484/486 436/481/483
f 438/483/485 440/485/487 441/486/488 439/484/486
f 440/485/487 442/487/489 443/488/490 444/489/491 441/486/488
f 442/487/489 445/490/492 387/456/79 391/437/83 446/491/493 443/488/490
f 391/437/83 447/492/494 448/493/495 446/491/493
f 447/492/494 449/494/496 450/495/497 448/493/495
f 449/494/496 451/496/498 452/497/499 450/495/497
f 451/496/498 453/498/500 454/499/501 452/497/499
f 453/498/500 455/500/502 456/501/503 454/499/501
f 423/465/423 457/502/504 395/440/94 398/443/97 456/501/503 455/500/502 458/503/505 424/466/468
s 33
f 317/339/506 316/338/507 315/337/508 314/336/509
f 318/340/510 317/339/506 314/336/509 313/335/511
f 319/341/512 318/340/510 313/335/511 312/334/513
f 320/342/514 319/341/512 312/334/513 311/333/515
f 321/343/516 320/342/514 311/333/515 310/332/517
f 322/344/518 321/343/516 310/332/517 309/331/519
f 323/345/520 322/344/518 309/331/519 308/330/521
f 324/346/522 335/359/523 323/345/520 308/330/521 307/329/524
f 325/347/525 324/346/522 307/329/524 306/328/526
f 326/348/527 325/347/525 306/328/526 305/327/528
f 327/349/529 326/348/527 305/327/528 304/326/530
f 328/351/531 327/349/529 304/326/530 303/325/532 344/372/533 347/375/534 348/376/535 343/370/536
f 342/368/537 346/374/538 344/371/533 303/324/532 302/323/539
f 340/364/540 342/367/537 302/322/539 301/321/541
f 338/362/542 345/373/543 340/364/540 301/321/541 300/320/544
f 331/355/545 248/262/546 337/361/547 338/362/542 300/320/544 299/319/548
f 332/356/549 336/360/550 331/355/545 299/319/548 298/318/551
f 333/357/552 332/356/549 298/318/551 297/317/553
f 334/358/554 333/357/552 297/317/553 296/316/555
f 316/338/507 334/358/554 296/316/555 315/337/508
f 248/262/546 330/354/556 339/363/557 350/378/558 337/361/547
f 330/354/556 329/352/559 341/365/560 339/363/557
f 329/353/559 328/350/531 343/369/536 349/377/561 341/366/560
s 34
f 460/394/562 459/395/563 461/396/564 462/397/565
f 464/398/566 463/399/567 460/400/562 462/401/565 465/402/568 466/403/569
f 467/404/570 464/405/566 466/406/569 468/407/571
f 470/408/572 469/409/573 467/404/570 468/407/571 471/410/574 472/411/575
s 35
f 290/310/576 294/314/577 351/380/578 352/379/579
f 294/314/577 288/308/580 353/381/581 351/380/578
s 36
f 289/309/582 290/310/583 352/379/584 354/382/585
s 35
f 288/308/580 287/307/586 355/383/587 353/381/581
s 37
f 287/307/588 285/305/589 356/384/590 355/383/591
s 36
f 286/306/592 289/309/582 354/382/585 357/385/593
s 37
f 285/305/589 284/304/594 358/386/595 356/384/590
f 284/304/594 256/275/596 359/387/597 358/386/595
s 36
f 291/311/598 286/306/592 357/385/593 360/388/599
s 38
f 256/275/600 282/302/601 361/389/602 359/387/603
s 36
f 283/303/604 291/311/598 360/388/599 362/390/605
s 39
f 292/312/606 295/315/607 363/392/608 364/391/609
s 36
f 295/315/610 293/313/611 365/393/612 363/392/613
s 41
f 282/302/614 292/312/615 364/391/616 361/389/617
s 36
f 293/313/611 283/303/604 362/390/605 365/393/612
s 42
f 476/505/618 474/507/619 459/395/620 460/394/621
s off
f 474/507/622 478/509/623 461/396/624 459/395/625
s 43
f 478/509/626 480/511/627 462/397/628 461/396/629
s 44
f 484/513/630 482/515/631 463/399/632 464/398/633
s 42
f 482/515/634 476/517/618 460/400/621 463/399/635
s 43
f 480/519/627 486/521/636 465/402/637 462/401/628
s 45
f 486/521/638 488/523/639 466/403/640 465/402/641
s 44
usemtl lambert3SG
f 490/525/642 484/527/630 464/405/633 467/404/643
s 45
usemtl lambert16SG
f 488/529/639 492/531/644 468/407/645 466/406/640
s 46
usemtl lambert3SG
f 496/533/646 494/535/647 469/409/648 470/408/649
f 494/535/647 490/525/650 467/404/651 469/409/648
s 45
usemtl lambert16SG
f 492/531/644 498/537/652 471/410/653 468/407/645
s 47
usemtl lambert3SG
f 498/537/654 500/539/655 472/411/656 471/410/657
f 500/539/655 496/533/658 470/408/659 472/411/656
s 5
usemtl lambert16SG
f 381/428/93 382/429/98 368/66/68
s 48
f 298/318/660 299/319/661 367/413/662 366/412/663
s 49
f 299/319/664 300/320/665 369/414/666 367/413/667
f 300/320/665 301/321/668 370/415/669 369/414/666
f 301/321/668 302/322/670 371/416/671 370/415/669
f 302/323/670 303/324/672 372/418/673 371/417/671
f 303/325/672 304/326/674 373/420/675 372/419/673
f 304/326/674 305/327/676 374/421/677 373/420/675
s 50
f 305/327/678 306/328/679 375/422/680 374/421/681
f 306/328/679 307/329/682 376/423/683 375/422/680
f 307/329/682 308/330/684 377/424/685 376/423/683
s 51
f 308/330/686 309/331/687 378/425/688 377/424/689
f 313/335/690 314/336/691 380/427/692 379/426/693
f 314/336/691 315/337/694 381/428/695 380/427/692
s 48
f 296/316/696 297/317/697 383/430/698 382/429/699
f 297/317/697 298/318/660 366/412/663 383/430/698
s 51
f 312/334/700 313/335/690 379/426/693 384/431/701
f 311/333/702 312/334/700 384/431/701 385/432/703
f 310/332/704 311/333/702 385/432/703 386/433/705
f 309/331/687 310/332/704 386/433/705 378/425/688
s off
f 315/337/706 296/316/707 382/429/708 381/428/709
f 254/273/710 288/308/711 389/435/712 388/434/713
s 35
f 288/308/580 294/314/577 390/436/714 389/435/715
f 294/314/577 290/310/576 391/437/716 390/436/714
s 38
f 282/302/601 256/275/600 392/439/717 394/438/718
s 53
f 261/281/719 262/282/720 396/441/721 395/440/722
s off
f 334/358/723 316/338/724 398/443/725 397/442/726
s 53
f 247/261/727 265/285/728 400/445/729 399/444/730
s 55
f 265/285/731 228/241/732 401/446/733 400/445/734
f 228/241/732 229/242/735 403/447/736 401/446/733
f 229/242/735 230/243/737 405/448/738 403/447/736
f 230/243/737 231/244/739 407/449/740 405/448/738
f 231/245/739 232/246/741 409/451/742 407/450/740
s 56
f 232/246/743 266/286/744 411/452/745 409/451/746
s off
f 272/292/747 273/293/748 413/454/749 412/453/750
s 57
f 273/293/751 238/252/752 414/455/753 413/454/754
s off
f 253/272/755 272/292/756 412/453/757 387/456/758
s 57
f 238/252/752 239/253/759 415/457/760 414/455/753
s 37
f 255/274/761 287/307/762 417/459/763 416/458/764
f 287/307/762 254/273/765 388/434/766 417/459/763
s 57
f 239/253/759 240/254/767 418/460/768 415/457/760
s 37
f 256/275/596 284/304/594 419/461/769 392/439/770
f 284/304/594 255/274/761 416/458/764 419/461/769
s 57
f 240/254/767 241/255/771 420/462/772 418/460/768
f 241/255/771 278/298/773 421/463/774 420/462/772
s off
f 278/298/775 279/299/776 422/464/777 421/463/778
f 279/299/779 257/277/780 423/465/781 422/464/782
s 41
f 292/312/615 282/302/614 394/438/783 424/466/784
s 53
f 262/282/720 263/283/785 425/467/786 396/441/721
s 59
f 333/357/787 334/358/788 397/442/789 426/468/790
s 53
f 263/283/785 264/284/791 427/469/792 425/467/786
s 59
f 332/356/793 333/357/787 426/468/790 428/470/794
s 53
f 264/284/791 247/261/727 399/444/730 427/469/792
s 59
f 331/355/795 336/360/796 430/472/797 429/471/798
f 336/360/796 332/356/793 428/470/794 430/472/797
s off
f 248/262/799 331/355/800 429/471/801 402/473/802
s 60
f 330/354/803 248/262/804 402/473/805 431/474/806
f 329/352/807 330/354/803 431/474/806 432/475/808
f 328/350/809 329/353/807 432/477/808 433/476/810
f 327/349/811 328/351/809 433/479/810 434/478/812
s 56
f 266/286/744 267/287/813 435/480/814 411/452/745
s 61
f 326/348/815 327/349/816 434/478/817 436/481/818
s 56
f 267/287/813 281/301/819 437/482/820 435/480/814
f 281/301/819 268/288/821 438/483/822 437/482/820
s 61
f 325/347/823 326/348/815 436/481/818 439/484/824
s 56
f 268/288/821 269/289/825 440/485/826 438/483/822
s 61
f 324/346/827 325/347/823 439/484/824 441/486/828
s 56
f 269/289/825 270/290/829 442/487/830 440/485/826
s 62
f 323/345/831 335/359/832 444/489/833 443/488/834
s 61
f 335/359/835 324/346/827 441/486/828 444/489/836
s 56
f 270/290/829 271/291/837 445/490/838 442/487/830
f 271/291/837 253/272/839 387/456/840 445/490/838
s 62
f 322/344/841 323/345/831 443/488/834 446/491/842
s 36
f 290/310/583 289/309/582 447/492/843 391/437/844
s 63
f 321/343/845 322/344/846 446/491/847 448/493/848
s 36
f 289/309/582 286/306/592 449/494/849 447/492/843
s 63
f 320/342/850 321/343/845 448/493/848 450/495/851
s 36
f 286/306/592 291/311/598 451/496/852 449/494/849
s 63
f 319/341/853 320/342/850 450/495/851 452/497/854
s 36
f 291/311/598 283/303/604 453/498/855 451/496/852
s 63
f 318/340/856 319/341/853 452/497/854 454/499/857
s 36
f 283/303/604 293/313/611 455/500/858 453/498/855
s 63
f 317/339/859 318/340/856 454/499/857 456/501/860
s off
f 257/277/861 280/300/862 457/502/863 423/465/864
s 53
f 280/300/865 261/281/719 395/440/722 457/502/866
s 63
f 316/338/867 317/339/859 456/501/860 398/443/868
s 36
f 293/313/611 295/315/610 458/503/869 455/500/858
s 39
f 295/315/607 292/312/606 424/466/870 458/503/871
s 64
f 343/370/872 348/376/873 473/506/874 475/504/875
f 475/504/875 473/506/874 474/507/876 476/505/877
s 65
f 348/376/878 347/375/879 477/508/880 473/506/881
f 473/506/881 477/508/880 478/509/882 474/507/883
s 66
f 347/375/884 344/372/885 479/510/886 477/508/887
f 477/508/887 479/510/886 480/511/888 478/509/889
s 67
f 341/366/890 349/377/891 481/514/892 483/512/893
f 483/512/893 481/514/892 482/515/894 484/513/895
s 64
f 349/377/896 343/369/872 475/516/875 481/514/897
f 481/514/897 475/516/875 476/517/877 482/515/898
s 66
f 344/371/885 346/374/899 485/520/900 479/518/886
f 479/518/886 485/520/900 486/521/901 480/519/888
s 68
f 346/374/902 342/368/903 487/522/904 485/520/905
f 485/520/905 487/522/904 488/523/906 486/521/907
s 67
f 339/363/908 341/365/890 483/526/893 489/524/909
usemtl lambert3SG
f 489/524/909 483/526/893 484/527/895 490/525/910
s 68
usemtl lambert16SG
f 342/367/903 340/364/911 491/530/912 487/528/904
f 487/528/904 491/530/912 492/531/913 488/529/906
s 69
f 337/361/914 350/378/915 493/534/916 495/532/917
usemtl lambert3SG
f 495/532/917 493/534/916 494/535/918 496/533/919
usemtl lambert16SG
f 350/378/915 339/363/920 489/524/921 493/534/916
usemtl lambert3SG
f 493/534/916 489/524/921 490/525/922 494/535/918
s 68
usemtl lambert16SG
f 340/364/911 345/373/923 497/536/924 491/530/912
f 491/530/912 497/536/924 498/537/925 492/531/913
s 70
f 345/373/926 338/362/927 499/538/928 497/536/929
usemtl lambert3SG
f 497/536/929 499/538/928 500/539/930 498/537/931
usemtl lambert16SG
f 338/362/927 337/361/932 495/532/933 499/538/928
usemtl lambert3SG
f 499/538/928 495/532/933 496/533/934 500/539/930
